<svg width="512" height="512" viewBox="0 0 512 512" fill="none" xmlns="http://www.w3.org/2000/svg">
<path fill-rule="evenodd" clip-rule="evenodd" d="M0 37C0 16.5655 16.5655 0 37 0H347C366.906 0 383.14 15.7195 383.967 35.4221C383.989 35.6117 384 35.8045 384 36C384 36.0901 383.998 36.1796 383.993 36.2685C383.998 36.5118 384 36.7556 384 37V186.763H374V72H10V214C10 228.912 22.0883 241 37 241H128V224C128 203.565 144.565 187 165 187H475C495.435 187 512 203.565 512 224V412C512 432.435 495.435 449 475 449H345.377L351.196 482H385C393.284 482 400 488.716 400 497C400 505.284 393.284 512 385 512H255C246.716 512 240 505.284 240 497C240 488.716 246.716 482 255 482H288.335L294.154 449H165C144.565 449 128 432.435 128 412V251H37C16.5655 251 0 234.435 0 214V37ZM347 10C359.85 10 370.603 18.9761 373.331 31H155C152.239 31 150 33.2386 150 36C150 38.7614 152.239 41 155 41H374V62H10V37C10 22.0883 22.0883 10 37 10H347ZM40 36C40 33.2386 42.2386 31 45 31C47.7614 31 50 33.2386 50 36C50 38.7614 47.7614 41 45 41C42.2386 41 40 38.7614 40 36ZM75 31C72.2386 31 70 33.2386 70 36C70 38.7614 72.2386 41 75 41C77.7614 41 80 38.7614 80 36C80 33.2386 77.7614 31 75 31ZM100 36C100 33.2386 102.239 31 105 31C107.761 31 110 33.2386 110 36C110 38.7614 107.761 41 105 41C102.239 41 100 38.7614 100 36ZM341.042 482L335.223 449H304.308L298.489 482H341.042ZM165 197C150.088 197 138 209.088 138 224V412C138 426.912 150.088 439 165 439H475C489.912 439 502 426.912 502 412V224C502 209.088 489.912 197 475 197H165ZM316 425C316 422.239 318.239 420 321 420C323.761 420 326 422.239 326 425C326 427.761 323.761 430 321 430C318.239 430 316 427.761 316 425ZM250 497C250 494.239 252.239 492 255 492H385C387.761 492 390 494.239 390 497C390 499.761 387.761 502 385 502H255C252.239 502 250 499.761 250 497ZM158 232C158 223.716 164.716 217 173 217H467C475.284 217 482 223.716 482 232V394C482 402.284 475.284 409 467 409H173C164.716 409 158 402.284 158 394V232ZM173 227C170.239 227 168 229.239 168 232V394C168 396.761 170.239 399 173 399H467C469.761 399 472 396.761 472 394V232C472 229.239 469.761 227 467 227H173Z" fill="url(#paint0_linear)"/>
<path fill-rule="evenodd" clip-rule="evenodd" d="M45 96.2366C36.7157 96.2366 30 102.952 30 111.237V202.237C30 210.521 36.7157 217.237 45 217.237H128.617C129.27 213.701 130.425 210.342 132.006 207.237H45C42.2386 207.237 40 204.998 40 202.237V111.237C40 108.475 42.2386 106.237 45 106.237H218C220.761 106.237 223 108.475 223 111.237V187H233V111.237C233 102.952 226.284 96.2366 218 96.2366H45ZM119 140C119 132.82 124.82 127 132 127C138.667 127 143.918 132.786 143.999 139.834C143.602 144.902 140.643 148.017 136.034 152.869L136.031 152.872L136.007 152.897C135.839 153.074 135.67 153.253 135.498 153.434C130.737 158.451 125 164.94 125 176C125 178.761 127.239 181 130 181C132.761 181 135 178.761 135 176C135 169.06 138.263 165.049 142.752 160.316C143.076 159.976 143.41 159.627 143.753 159.271C147.956 154.9 153.395 149.242 153.989 140.333L154 140.166V140C154 128.323 145.163 117 132 117C119.297 117 109 127.297 109 140C109 142.761 111.239 145 114 145C116.761 145 119 142.761 119 140ZM130 196C132.761 196 135 193.761 135 191C135 188.239 132.761 186 130 186C127.239 186 125 188.239 125 191C125 193.761 127.239 196 130 196ZM57.5008 151.982C55.229 153.294 54.3759 156.119 55.4799 158.449C55.8771 159.476 56.6145 160.379 57.6424 160.973L92.2835 180.973C94.6749 182.354 97.7329 181.534 99.1136 179.143C100.494 176.751 99.6749 173.693 97.2835 172.313L69.7858 156.437L97.1419 140.643C99.5333 139.262 100.353 136.204 98.972 133.813C97.5913 131.421 94.5333 130.602 92.1418 131.982L57.5008 151.982ZM206.113 151.982C208.384 153.294 209.237 156.119 208.133 158.449C207.736 159.476 206.999 160.379 205.971 160.973L171.33 180.973C168.938 182.354 165.881 181.534 164.5 179.143C163.119 176.751 163.938 173.693 166.33 172.313L193.828 156.437L166.472 140.643C164.08 139.262 163.261 136.204 164.641 133.813C166.022 131.421 169.08 130.602 171.472 131.982L206.113 151.982ZM259 123.237C256.239 123.237 254 125.475 254 128.237C254 130.998 256.239 133.237 259 133.237H344C346.761 133.237 349 130.998 349 128.237C349 125.475 346.761 123.237 344 123.237H259ZM290 153.237C287.239 153.237 285 155.475 285 158.237C285 160.998 287.239 163.237 290 163.237H344C346.761 163.237 349 160.998 349 158.237C349 155.475 346.761 153.237 344 153.237H290Z" fill="black"/>
<path d="M331.947 249.787L327.096 251L327.096 251L331.947 249.787ZM335.124 262.498L330.274 263.711L330.274 263.711L335.124 262.498ZM338.471 266.137L336.724 270.822L336.724 270.822L338.471 266.137ZM341.44 267.355L339.394 271.917L339.394 271.917L341.44 267.355ZM346.345 267.132L343.773 262.845L343.773 262.845L346.345 267.132ZM357.71 260.313L360.282 264.601L360.282 264.601L357.71 260.313ZM363.818 261.065L367.353 257.53L367.353 257.53L363.818 261.065ZM372.439 269.686L368.904 273.222L368.904 273.222L372.439 269.686ZM373.191 275.794L368.904 273.222L368.904 273.222L373.191 275.794ZM366.524 286.906L370.811 289.479L370.811 289.479L366.524 286.906ZM366.336 291.885L370.867 289.771L370.867 289.771L366.336 291.885ZM367.863 295.529L372.547 293.781L372.547 293.781L367.863 295.529ZM384.213 323.947L385.425 328.798L385.425 328.798L384.213 323.947ZM371.502 327.124L370.289 322.274L370.289 322.274L371.502 327.124ZM367.863 330.471L363.178 328.724L363.178 328.724L367.863 330.471ZM366.453 333.863L361.91 331.774L361.91 331.774L366.453 333.863ZM366.654 338.814L370.941 336.242L370.941 336.242L366.654 338.814ZM373.191 349.709L368.904 352.282L368.904 352.282L373.191 349.709ZM357.71 365.191L360.282 360.903L360.282 360.903L357.71 365.191ZM346.815 358.654L344.242 362.941L344.242 362.941L346.815 358.654ZM341.863 358.452L343.952 362.995L343.952 362.995L341.863 358.452ZM338.471 359.863L340.219 364.547L340.219 364.547L338.471 359.863ZM303.529 359.863L301.781 364.547L301.781 364.547L303.529 359.863ZM299.885 358.336L301.999 353.805L301.999 353.805L299.885 358.336ZM294.906 358.524L292.334 354.236L292.334 354.236L294.906 358.524ZM283.795 365.191L281.222 360.903L281.222 360.903L283.795 365.191ZM277.687 364.439L281.222 360.903L281.222 360.903L277.687 364.439ZM269.066 355.817L265.53 359.353L265.53 359.353L269.066 355.817ZM268.314 349.709L272.601 352.282L272.601 352.282L268.314 349.709ZM275.132 338.345L279.42 340.918L279.42 340.918L275.132 338.345ZM275.355 333.44L279.917 331.394L279.917 331.394L275.355 333.44ZM274.137 330.471L278.822 328.724L278.822 328.724L274.137 330.471ZM270.498 327.124L271.711 322.274L271.711 322.274L270.498 327.124ZM257.787 323.947L259 319.096L259 319.096L257.787 323.947ZM257.787 302.053L259 306.904L259 306.904L257.787 302.053ZM270.498 298.876L271.711 303.726L271.711 303.726L270.498 298.876ZM274.137 295.529L269.453 293.781L269.453 293.781L274.137 295.529ZM275.47 292.305L270.92 290.234L270.92 290.234L275.47 292.305ZM275.26 287.372L270.973 289.945L270.973 289.945L275.26 287.372ZM268.314 275.794L272.601 273.222L272.601 273.222L268.314 275.794ZM269.066 269.686L272.601 273.222L272.601 273.222L269.066 269.686ZM277.687 261.065L281.222 264.601L281.222 264.601L277.687 261.065ZM283.795 260.313L281.222 264.601L281.222 264.601L283.795 260.313ZM295.373 267.26L292.8 271.548L292.8 271.548L295.373 267.26ZM300.306 267.47L302.378 272.021L302.378 272.021L300.306 267.47ZM303.529 266.137L305.276 270.822L303.529 266.137ZM306.876 262.498L311.726 263.711L311.726 263.711L306.876 262.498ZM310.053 249.787L314.904 251L314.904 251L310.053 249.787ZM336.798 248.575C335.685 244.123 331.685 241 327.096 241V251L327.096 251L336.798 248.575ZM339.975 261.285L336.798 248.575L327.096 251L330.274 263.711L339.975 261.285ZM340.219 261.453C340.11 261.412 340.039 261.356 340.001 261.316C339.968 261.28 339.971 261.269 339.975 261.285L330.274 263.711C331.134 267.151 333.691 269.691 336.724 270.822L340.219 261.453ZM343.486 262.793C342.415 262.312 341.325 261.865 340.219 261.453L336.724 270.822C337.628 271.159 338.518 271.525 339.394 271.917L343.486 262.793ZM343.773 262.845C343.787 262.836 343.781 262.846 343.733 262.848C343.679 262.85 343.59 262.84 343.486 262.793L339.394 271.917C342.326 273.232 345.9 273.23 348.918 271.42L343.773 262.845ZM355.137 256.026L343.773 262.845L348.918 271.42L360.282 264.601L355.137 256.026ZM367.353 257.53C364.109 254.285 359.072 253.665 355.137 256.026L360.282 264.601L360.282 264.601L367.353 257.53ZM375.975 266.151L367.353 257.53L360.282 264.601L368.904 273.222L375.975 266.151ZM377.478 278.367C379.839 274.432 379.219 269.396 375.975 266.151L368.904 273.222L368.904 273.222L377.478 278.367ZM370.811 289.479L377.478 278.367L368.904 273.222L362.236 284.334L370.811 289.479ZM370.867 289.771C370.818 289.666 370.806 289.575 370.808 289.52C370.809 289.47 370.82 289.465 370.811 289.479L362.236 284.334C360.396 287.402 360.424 291.04 361.805 293.999L370.867 289.771ZM372.547 293.781C372.039 292.418 371.478 291.08 370.867 289.771L361.805 293.999C362.304 295.069 362.762 296.162 363.178 297.276L372.547 293.781ZM372.715 294.025C372.731 294.029 372.72 294.032 372.684 293.999C372.644 293.961 372.588 293.89 372.547 293.781L363.178 297.276C364.309 300.309 366.849 302.866 370.289 303.726L372.715 294.025ZM385.425 297.202L372.715 294.025L370.289 303.726L383 306.904L385.425 297.202ZM393 306.904C393 302.315 389.877 298.315 385.425 297.202L383 306.904L383 306.904H393ZM393 319.096V306.904H383V319.096H393ZM385.425 328.798C389.877 327.685 393 323.685 393 319.096H383L383 319.096L385.425 328.798ZM372.715 331.975L385.425 328.798L383 319.096L370.289 322.274L372.715 331.975ZM372.547 332.219C372.588 332.11 372.644 332.039 372.684 332.001C372.72 331.968 372.731 331.971 372.715 331.975L370.289 322.274C366.849 323.134 364.309 325.691 363.178 328.724L372.547 332.219ZM370.996 335.952C371.557 334.731 372.075 333.486 372.547 332.219L363.178 328.724C362.792 329.759 362.369 330.777 361.91 331.774L370.996 335.952ZM370.941 336.242C370.95 336.256 370.939 336.25 370.938 336.201C370.936 336.147 370.947 336.057 370.996 335.952L361.91 331.774C360.554 334.723 360.537 338.338 362.366 341.387L370.941 336.242ZM377.478 347.137L370.941 336.242L362.366 341.387L368.904 352.282L377.478 347.137ZM375.975 359.353C379.219 356.108 379.839 351.072 377.478 347.137L368.904 352.282L368.904 352.282L375.975 359.353ZM367.353 367.974L375.975 359.353L368.904 352.282L360.282 360.903L367.353 367.974ZM355.137 369.478C359.072 371.839 364.109 371.219 367.353 367.974L360.282 360.903L360.282 360.903L355.137 369.478ZM344.242 362.941L355.137 369.478L360.282 360.903L349.387 354.366L344.242 362.941ZM343.952 362.995C344.057 362.947 344.147 362.936 344.202 362.938C344.251 362.939 344.257 362.95 344.242 362.941L349.387 354.366C346.338 352.537 342.724 352.554 339.775 353.91L343.952 362.995ZM340.219 364.547C341.486 364.075 342.731 363.557 343.952 362.995L339.775 353.91C338.777 354.368 337.759 354.792 336.724 355.178L340.219 364.547ZM339.975 364.715C339.971 364.731 339.968 364.72 340.001 364.684C340.039 364.644 340.11 364.588 340.219 364.547L336.724 355.178C333.691 356.309 331.134 358.849 330.274 362.289L339.975 364.715ZM336.798 377.425L339.975 364.715L330.274 362.289L327.096 375L336.798 377.425ZM327.096 385C331.685 385 335.685 381.877 336.798 377.425L327.096 375L327.096 375V385ZM314.904 385H327.096V375H314.904V385ZM305.202 377.425C306.315 381.877 310.315 385 314.904 385V375L314.904 375L305.202 377.425ZM302.025 364.715L305.202 377.425L314.904 375L311.726 362.289L302.025 364.715ZM301.781 364.547C301.89 364.588 301.961 364.644 301.999 364.684C302.032 364.72 302.029 364.731 302.025 364.715L311.726 362.289C310.866 358.849 308.309 356.309 305.276 355.178L301.781 364.547ZM297.771 362.867C299.08 363.478 300.418 364.039 301.781 364.547L305.276 355.178C304.162 354.762 303.069 354.304 301.999 353.805L297.771 362.867ZM297.479 362.811C297.464 362.82 297.47 362.809 297.52 362.808C297.575 362.806 297.665 362.818 297.771 362.867L301.999 353.805C299.04 352.424 295.401 352.396 292.334 354.236L297.479 362.811ZM286.367 369.478L297.479 362.811L292.334 354.236L281.222 360.903L286.367 369.478ZM274.151 367.974C277.396 371.219 282.433 371.839 286.367 369.478L281.222 360.903L281.222 360.903L274.151 367.974ZM265.53 359.353L274.151 367.974L281.222 360.903L272.601 352.282L265.53 359.353ZM264.026 347.137C261.665 351.072 262.285 356.108 265.53 359.353L272.601 352.282L272.601 352.282L264.026 347.137ZM270.845 335.773L264.026 347.137L272.601 352.282L279.42 340.918L270.845 335.773ZM270.793 335.486C270.84 335.59 270.85 335.679 270.848 335.733C270.846 335.781 270.836 335.787 270.845 335.773L279.42 340.918C281.23 337.9 281.232 334.326 279.917 331.394L270.793 335.486ZM269.453 332.219C269.865 333.325 270.312 334.415 270.793 335.486L279.917 331.394C279.525 330.518 279.159 329.628 278.822 328.724L269.453 332.219ZM269.285 331.975C269.269 331.971 269.28 331.968 269.316 332.001C269.356 332.039 269.412 332.11 269.453 332.219L278.822 328.724C277.691 325.691 275.151 323.134 271.711 322.274L269.285 331.975ZM256.575 328.798L269.285 331.975L271.711 322.274L259 319.096L256.575 328.798ZM249 319.096C249 323.685 252.123 327.685 256.575 328.798L259 319.096L259 319.096H249ZM249 306.904V319.096H259V306.904H249ZM256.575 297.202C252.123 298.315 249 302.315 249 306.904H259L259 306.904L256.575 297.202ZM269.285 294.025L256.575 297.202L259 306.904L271.711 303.726L269.285 294.025ZM269.453 293.781C269.412 293.89 269.356 293.961 269.316 293.999C269.28 294.032 269.269 294.029 269.285 294.025L271.711 303.726C275.151 302.866 277.691 300.309 278.822 297.276L269.453 293.781ZM270.92 290.234C270.391 291.395 269.901 292.578 269.453 293.781L278.822 297.276C279.189 296.293 279.589 295.326 280.021 294.377L270.92 290.234ZM270.973 289.945C270.964 289.93 270.975 289.936 270.976 289.985C270.978 290.039 270.967 290.129 270.92 290.234L280.021 294.377C281.36 291.435 281.37 287.836 279.548 284.8L270.973 289.945ZM264.026 278.367L270.973 289.945L279.548 284.8L272.601 273.222L264.026 278.367ZM265.53 266.151C262.285 269.396 261.665 274.432 264.026 278.367L272.601 273.222L272.601 273.222L265.53 266.151ZM274.151 257.53L265.53 266.151L272.601 273.222L281.222 264.601L274.151 257.53ZM286.367 256.026C282.433 253.665 277.396 254.285 274.151 257.53L281.222 264.601L281.222 264.601L286.367 256.026ZM297.945 262.973L286.367 256.026L281.222 264.601L292.8 271.548L297.945 262.973ZM298.234 262.919C298.129 262.967 298.04 262.978 297.985 262.976C297.937 262.974 297.931 262.964 297.945 262.973L292.8 271.548C295.837 273.37 299.435 273.36 302.378 272.021L298.234 262.919ZM301.781 261.453C300.578 261.901 299.395 262.391 298.234 262.919L302.378 272.021C303.327 271.589 304.293 271.189 305.276 270.822L301.781 261.453ZM302.025 261.285C302.029 261.269 302.032 261.28 301.999 261.316C301.961 261.356 301.89 261.412 301.781 261.453L305.276 270.822C308.309 269.691 310.866 267.151 311.726 263.711L302.025 261.285ZM305.202 248.575L302.025 261.285L311.726 263.711L314.904 251L305.202 248.575ZM314.904 241C310.315 241 306.315 244.123 305.202 248.575L314.904 251L314.904 251V241ZM327.096 241H314.904V251H327.096V241ZM348 313C348 327.912 335.912 340 321 340V350C341.435 350 358 333.435 358 313H348ZM321 286C335.912 286 348 298.088 348 313H358C358 292.565 341.435 276 321 276V286ZM294 313C294 298.088 306.088 286 321 286V276C300.565 276 284 292.565 284 313H294ZM321 340C306.088 340 294 327.912 294 313H284C284 333.435 300.565 350 321 350V340Z" fill="black"/>
<path fill-rule="evenodd" clip-rule="evenodd" d="M187 283C187 280.239 189.239 278 192 278H238C240.761 278 243 280.239 243 283C243 285.761 240.761 288 238 288H192C189.239 288 187 285.761 187 283ZM187 343C187 340.239 189.239 338 192 338H238C240.761 338 243 340.239 243 343C243 345.761 240.761 348 238 348H192C189.239 348 187 345.761 187 343ZM192 308C189.239 308 187 310.239 187 313C187 315.761 189.239 318 192 318H214C216.761 318 219 315.761 219 313C219 310.239 216.761 308 214 308H192Z" fill="black"/>
<path fill-rule="evenodd" clip-rule="evenodd" d="M413.225 295.664C413.08 298.422 415.199 300.775 417.956 300.919C420.714 301.064 423.067 298.945 423.211 296.188L423.904 282.957C428.443 291.989 431 302.19 431 313C431 329.718 424.883 344.995 414.759 356.734L414.762 356.737C414.007 357.612 413.55 358.753 413.55 360C413.55 362.761 415.789 365 418.55 365C420.137 365 421.55 364.261 422.466 363.109C434.017 349.644 441 332.131 441 313C441 301.659 438.545 290.882 434.136 281.179L442.284 286.47C444.6 287.974 447.697 287.315 449.201 284.999C450.705 282.684 450.046 279.587 447.73 278.083L422.57 261.744C421.008 260.729 419.091 260.699 417.547 261.496C415.994 262.277 414.892 263.846 414.795 265.706L413.225 295.664Z" fill="black"/>
<defs>
<linearGradient id="paint0_linear" x1="512" y1="512" x2="-28.5643" y2="479.802" gradientUnits="userSpaceOnUse">
<stop stop-color="#390065"/>
<stop offset="1" stop-color="#54BBF6"/>
</linearGradient>
</defs>
</svg>
