<svg width="512" height="512" viewBox="0 0 512 512" fill="none" xmlns="http://www.w3.org/2000/svg">
<path fill-rule="evenodd" clip-rule="evenodd" d="M116.529 22.8882C118.622 13.8232 127.07 8.55092 134.95 10.3699C142.768 12.1746 148.029 20.4992 146.066 29.4834L39.9294 489.16L39.935 489.161C37.8221 498.195 29.3913 503.444 21.5266 501.628C13.6586 499.812 8.37741 491.395 10.4392 482.352L10.44 482.352L116.528 22.8879L116.529 22.8882ZM95.9289 291.076L49.6849 491.358L49.6906 491.359C46.4804 505.262 33.0654 514.555 19.2769 511.372C5.49139 508.19 -2.50407 493.96 0.706809 480.053L0.70763 480.054L107.024 19.5996L107.045 19.6045C110.667 6.27863 123.756 -2.47709 137.2 0.626216C149.789 3.53238 157.54 15.6501 156.349 28.3183C161.262 32.0125 165.722 35.6664 169.918 39.1523C170.715 39.8137 171.5 40.4679 172.276 41.1141C176.061 44.2676 179.629 47.2396 183.237 50.0336C188.748 54.3014 194.227 58.0522 200.314 61.1068C202.56 62.2337 204.888 63.2659 207.332 64.1943C208.12 64.4938 208.92 64.7825 209.733 65.0601C210.256 65.2387 210.784 65.4127 211.319 65.5821C223.337 69.3917 238.576 70.9446 260.338 68.7352C263.721 68.3918 267.261 67.9576 270.972 67.4268C286.024 65.2731 303.874 61.5303 325.35 55.821C326.672 55.4695 328.008 55.1105 329.358 54.7439C331.714 54.1044 334.044 53.4979 336.35 52.923C355.899 48.0487 373.666 45.4617 389.733 44.5734C392.887 44.399 395.976 44.2901 399 44.2422C399.382 44.2362 399.764 44.231 400.144 44.2268C419.481 44.0174 436.139 46.3067 450.286 49.9105C453.424 50.7097 456.438 51.5737 459.33 52.4893C459.546 52.5575 459.761 52.626 459.975 52.6947C463.393 53.7929 466.64 54.963 469.718 56.1832C484.631 62.0954 495.484 69.1468 502.652 74.7753C503.648 75.5575 504.573 76.3121 505.428 77.0325C507.264 78.5795 507.592 78.9761 507.592 78.9761C511.26 82.6194 512.781 87.9014 511.612 92.9374L490.182 185.3C490.204 185.327 490.225 185.351 490.243 185.372L490.269 185.404L490.317 185.46L490.333 185.48L490.339 185.488C490.339 185.488 490.34 185.489 490.309 185.515C490.278 185.542 490.215 185.595 490.089 185.7L466.871 285.767L466.947 285.856L466.964 285.875L467.006 285.924L467.042 285.966L467.079 286.011L467.117 286.055L467.164 286.112L467.181 286.132L467.187 286.139C467.188 286.14 467.188 286.141 467.155 286.169C467.106 286.21 466.986 286.311 466.687 286.557L456.056 332.379C455.458 334.953 454.903 336.642 452.86 338.319C452.437 338.666 450.928 339.69 450.383 339.738C449.55 339.811 448.834 339.869 448.22 339.915C445.942 340.087 443.808 339.199 442.096 337.685C440.944 336.667 439.597 335.534 438.051 334.32C431.554 329.218 421.535 322.683 407.623 317.168C405.022 316.137 402.281 315.14 399.398 314.194C396.39 313.207 393.227 312.275 389.906 311.418C375.99 307.826 359.305 305.541 339.632 305.955C336.268 306.026 332.816 306.176 329.276 306.411C312.698 307.515 294.181 310.501 273.612 316.086C273.113 316.221 272.617 316.356 272.122 316.489C269.647 317.156 267.216 317.798 264.827 318.417C243.328 323.983 225.274 327.606 209.86 329.585C206.396 330.029 203.065 330.391 199.858 330.673C178.651 332.538 162.876 330.921 149.892 326.805C149.502 326.681 149.115 326.556 148.731 326.428C145.609 325.389 142.666 324.21 139.865 322.913C131.978 319.26 125.208 314.668 118.689 309.619C114.926 306.706 111.194 303.597 107.407 300.442L107.406 300.441C106.64 299.803 105.872 299.163 105.101 298.522C102.146 296.068 99.1187 293.579 95.9289 291.076ZM98.4195 280.289C103.153 283.867 107.468 287.403 111.534 290.781C112.33 291.442 113.115 292.096 113.891 292.742C117.677 295.896 121.245 298.868 124.853 301.662C130.44 305.989 135.996 309.785 142.185 312.863L151.529 272.394C143.819 268.773 137.173 264.254 130.768 259.294C127.005 256.38 123.273 253.271 119.485 250.115C118.72 249.477 117.952 248.837 117.181 248.197C114.106 245.642 110.952 243.051 107.619 240.446L98.4195 280.289ZM110.108 229.669C114.996 233.347 119.435 236.984 123.613 240.455C124.41 241.116 125.195 241.77 125.97 242.416L125.971 242.417C129.756 245.57 133.324 248.542 136.932 251.336C142.396 255.567 147.828 259.29 153.853 262.331L163.096 222.298C155.175 218.639 148.382 214.034 141.841 208.968C138.078 206.054 134.346 202.945 130.558 199.789C129.793 199.151 129.025 198.512 128.254 197.871C125.321 195.435 122.318 192.966 119.155 190.483L110.108 229.669ZM121.646 179.694C126.351 183.253 130.641 186.769 134.686 190.129C135.479 190.788 136.261 191.439 137.034 192.083L137.043 192.091C140.829 195.244 144.397 198.217 148.005 201.011C153.616 205.356 159.195 209.166 165.416 212.25L174.761 171.779C167.017 168.152 160.347 163.619 153.921 158.642C150.158 155.728 146.426 152.619 142.638 149.464C141.872 148.826 141.104 148.186 140.333 147.545C137.281 145.01 134.152 142.438 130.846 139.852L121.646 179.694ZM133.335 129.073C138.193 132.732 142.609 136.35 146.766 139.804C147.556 140.46 148.336 141.11 149.106 141.751L149.113 141.757L149.123 141.765C152.909 144.919 156.477 147.891 160.085 150.685C165.572 154.934 171.028 158.671 177.084 161.719L186.328 121.683C178.373 118.019 171.556 113.399 164.994 108.317C161.231 105.403 157.499 102.294 153.712 99.1386L153.711 99.138C152.945 98.5001 152.177 97.8603 151.406 97.2198C148.497 94.8029 145.517 92.3531 142.382 89.8898L133.335 129.073ZM144.873 79.0993C149.549 82.6383 153.815 86.1354 157.839 89.4779C158.635 90.1394 159.42 90.7934 160.196 91.4396L160.197 91.4402C163.982 94.5935 167.55 97.5654 171.157 100.359C176.792 104.723 182.394 108.547 188.647 111.638L197.992 71.1648C190.215 67.5318 183.522 62.985 177.073 57.9911C173.31 55.0771 169.579 51.9683 165.791 48.8128L165.79 48.8123C165.025 48.1744 164.257 47.5346 163.486 46.8941C160.456 44.3774 157.351 41.8251 154.072 39.259L144.873 79.0993ZM198.079 115.53L207.458 74.9125C207.729 75.0016 208.002 75.0896 208.277 75.1766C221.201 79.2735 236.891 80.8951 257.952 79.07L248.73 119.013C226.716 121.293 211.344 119.745 199.239 115.908C198.85 115.784 198.463 115.658 198.079 115.53ZM259.368 117.684L268.55 77.9169C283.796 75.9427 301.619 72.3654 322.793 66.8967L313.76 106.016C292.292 111.739 274.434 115.503 259.368 117.684ZM324.758 103.127L333.799 63.9734C353.53 58.7312 371.354 55.8882 387.371 54.8025L378.119 94.8739C362.063 95.7306 344.304 98.2847 324.758 103.127ZM388.525 94.5481L397.811 54.3313C417.446 53.8998 434.111 56.156 448.021 59.7206L438.641 100.347C424.513 96.7085 407.864 94.3779 388.525 94.5481ZM448.323 103.159L457.702 62.5391C460.614 63.4929 463.382 64.4988 466.008 65.5397C479.919 71.0548 489.938 77.59 496.435 82.6914C499.199 84.8614 501.325 86.772 502.842 88.2337L493.733 127.684C492.773 126.866 491.72 126.002 490.573 125.101C483.404 119.472 472.552 112.421 457.638 106.509C454.689 105.34 451.585 104.217 448.323 103.159ZM484.356 133.017C487.355 135.372 489.604 137.422 491.138 138.924L482.203 177.622C481.368 176.921 480.467 176.187 479.5 175.427C472.331 169.798 461.479 162.747 446.565 156.835C443.463 155.605 440.189 154.426 436.741 153.32L446.049 113.005C448.806 113.917 451.431 114.875 453.928 115.865C467.84 121.38 477.859 127.916 484.356 133.017ZM473.283 183.343C476.003 185.479 478.106 187.364 479.618 188.816L470.508 228.273C469.567 227.474 468.538 226.63 467.42 225.752C460.252 220.124 449.399 213.072 434.486 207.16C431.512 205.981 428.381 204.849 425.089 203.784L434.468 163.164C437.41 164.126 440.205 165.14 442.855 166.191C456.767 171.706 466.786 178.241 473.283 183.343ZM461.203 233.668C464.157 235.988 466.382 238.01 467.914 239.506L458.977 278.212C458.163 277.529 457.287 276.816 456.347 276.078C449.179 270.45 438.326 263.398 423.413 257.486C420.286 256.246 416.985 255.059 413.507 253.945L422.816 213.63C425.602 214.55 428.254 215.517 430.776 216.517C444.687 222.032 454.706 228.567 461.203 233.668ZM450.13 283.994C452.808 286.097 454.888 287.956 456.394 289.399L447.282 328.862C446.361 328.082 445.357 327.259 444.268 326.404C437.099 320.775 426.247 313.724 411.333 307.812C408.335 306.623 405.177 305.482 401.855 304.409L411.234 263.789C414.206 264.758 417.028 265.782 419.703 266.842C433.614 272.357 443.633 278.893 450.13 283.994ZM401.551 260.981L392.171 301.608C378.036 297.982 361.383 295.667 342.045 295.852L351.33 255.638C370.964 255.191 387.632 257.43 401.551 260.981ZM340.888 256.117L331.637 296.186C315.577 297.055 297.815 299.621 278.268 304.476L287.307 265.326C307.04 260.071 324.867 257.215 340.888 256.117ZM276.302 268.247L267.269 307.369C245.797 313.086 227.943 316.842 212.882 319.013L222.064 279.243C237.306 277.279 255.127 273.711 276.302 268.247ZM211.469 280.388L202.246 320.334C180.328 322.587 165.006 321.037 152.934 317.21C152.49 317.07 152.049 316.925 151.612 316.778L160.99 276.162C161.316 276.269 161.643 276.375 161.972 276.479C174.86 280.565 190.498 282.189 211.469 280.388ZM165.014 266.885C164.424 266.698 163.842 266.505 163.266 266.307L172.572 226.002C172.624 226.019 172.676 226.036 172.727 226.052C172.833 226.086 172.939 226.12 173.045 226.154C186.047 230.275 201.848 231.892 223.1 230.014L213.855 270.056C192.188 272.239 176.999 270.684 165.014 266.885ZM176.087 216.559C175.67 216.427 175.256 216.292 174.846 216.154L184.224 175.537C184.523 175.635 184.823 175.732 185.124 175.828C198.031 179.919 213.694 181.542 234.711 179.729L225.488 219.673C203.522 221.94 188.175 220.391 176.087 216.559ZM188.166 166.233C187.604 166.055 187.049 165.872 186.499 165.684L195.806 125.377C195.936 125.419 196.066 125.461 196.197 125.502C209.218 129.63 225.044 131.245 246.342 129.355L237.097 169.396C215.382 171.592 200.168 170.038 188.166 166.233ZM247.729 168.091L256.944 128.181C272.203 126.179 290.034 122.579 311.202 117.096L302.104 156.497C280.627 162.204 262.778 165.943 247.729 168.091ZM313.105 153.597L322.209 114.169C341.937 108.959 359.753 106.15 375.758 105.097L366.492 145.23C350.422 146.124 332.654 148.717 313.105 153.597ZM376.904 144.879L386.193 104.647C405.832 104.257 422.487 106.557 436.376 110.158L427.051 150.541C412.901 146.944 396.24 144.662 376.904 144.879ZM374.57 154.985C394.205 154.545 410.871 156.793 424.786 160.351L415.406 200.978C401.274 197.345 384.623 195.023 365.285 195.2L374.57 154.985ZM362.953 205.3C382.591 204.902 399.248 207.194 413.141 210.788L403.816 251.171C389.662 247.581 373 245.307 353.664 245.532L362.953 205.3ZM352.517 205.754L343.251 245.886C327.179 246.786 309.41 249.386 289.86 254.272L298.963 214.845C318.692 209.629 336.509 206.814 352.517 205.754ZM287.956 217.771L278.859 257.173C257.38 262.878 239.532 266.612 224.486 268.755L233.701 228.844C248.958 226.847 266.787 223.252 287.956 217.771ZM290.514 206.693C269.044 212.413 251.189 216.173 236.125 218.348L245.307 178.58C260.551 176.611 278.373 173.038 299.547 167.572L290.514 206.693ZM301.513 203.802L310.553 164.649C330.285 159.401 348.11 156.552 364.13 155.46L354.878 195.53C338.82 196.393 321.059 198.953 301.513 203.802Z" fill="url(#paint0_linear)"/>
<path fill-rule="evenodd" clip-rule="evenodd" d="M253.396 427.692C253.396 386.659 286.659 353.396 327.691 353.396C368.724 353.396 401.987 386.659 401.987 427.692C401.987 468.724 368.724 501.987 327.691 501.987C286.659 501.987 253.396 468.724 253.396 427.692ZM327.691 343.396C281.136 343.396 243.396 381.136 243.396 427.692C243.396 474.247 281.136 511.987 327.691 511.987C374.246 511.987 411.987 474.247 411.987 427.692C411.987 381.136 374.246 343.396 327.691 343.396ZM310.078 458.004C310.338 458.264 310.62 458.49 310.918 458.68C312.881 460.28 315.777 460.165 317.607 458.336L370.919 405.023C372.872 403.07 372.872 399.905 370.919 397.952C368.967 395.999 365.801 395.999 363.848 397.952L314.008 447.792L289.716 423.5C287.764 421.548 284.598 421.548 282.645 423.5C280.693 425.453 280.693 428.619 282.645 430.571L310.078 458.004Z" fill="black"/>
<defs>
<linearGradient id="paint0_linear" x1="-0.0302197" y1="-0.00239241" x2="509.214" y2="514.636" gradientUnits="userSpaceOnUse">
<stop stop-color="#54BBF6"/>
<stop offset="1" stop-color="#390065"/>
</linearGradient>
</defs>
</svg>
