<svg width="512" height="512" viewBox="0 0 512 512" fill="none" xmlns="http://www.w3.org/2000/svg">
<path fill-rule="evenodd" clip-rule="evenodd" d="M0 37C0 16.5655 16.5655 0 37 0H475C495.435 0 512 16.5655 512 37V475C512 495.435 495.435 512 475 512H37C16.5655 512 0 495.435 0 475V37ZM37 10C22.0883 10 10 22.0883 10 37V62H502V37C502 22.0883 489.912 10 475 10H37ZM10 475V72H502V475C502 489.912 489.912 502 475 502H37C22.0883 502 10 489.912 10 475ZM155 31C152.239 31 150 33.2386 150 36C150 38.7614 152.239 41 155 41H467C469.761 41 472 38.7614 472 36C472 33.2386 469.761 31 467 31H155ZM40 36C40 33.2386 42.2386 31 45 31C47.7614 31 50 33.2386 50 36C50 38.7614 47.7614 41 45 41C42.2386 41 40 38.7614 40 36ZM75 31C72.2386 31 70 33.2386 70 36C70 38.7614 72.2386 41 75 41C77.7614 41 80 38.7614 80 36C80 33.2386 77.7614 31 75 31ZM100 36C100 33.2386 102.239 31 105 31C107.761 31 110 33.2386 110 36C110 38.7614 107.761 41 105 41C102.239 41 100 38.7614 100 36ZM226 292C223.239 292 221 294.239 221 297C221 299.761 223.239 302 226 302C228.761 302 231 299.761 231 297C231 294.239 228.761 292 226 292ZM251 297C251 294.239 253.239 292 256 292C258.761 292 261 294.239 261 297C261 299.761 258.761 302 256 302C253.239 302 251 299.761 251 297ZM286 292C283.239 292 281 294.239 281 297C281 299.761 283.239 302 286 302C288.761 302 291 299.761 291 297C291 294.239 288.761 292 286 292ZM229.412 448C226.651 448 224.412 450.239 224.412 453C224.412 455.761 226.651 458 229.412 458H291.412C294.174 458 296.412 455.761 296.412 453C296.412 450.239 294.174 448 291.412 448H229.412ZM382.412 453C382.412 450.239 384.651 448 387.412 448H449.412C452.174 448 454.412 450.239 454.412 453C454.412 455.761 452.174 458 449.412 458H387.412C384.651 458 382.412 455.761 382.412 453ZM60 448C57.2386 448 55 450.239 55 453C55 455.761 57.2386 458 60 458H122C124.761 458 127 455.761 127 453C127 450.239 124.761 448 122 448H60Z" fill="url(#paint0_linear)"/>
<path fill-rule="evenodd" clip-rule="evenodd" d="M36 127C36 118.716 42.7157 112 51 112H461C469.284 112 476 118.716 476 127V251C476 259.284 469.284 266 461 266H51C42.7157 266 36 259.284 36 251V127ZM51 122C48.2386 122 46 124.239 46 127V251C46 253.761 48.2386 256 51 256H114.399L168.67 162C172.519 155.333 182.141 155.333 185.99 162L218.977 219.135L248.11 177.085C252.087 171.345 260.573 171.345 264.55 177.085L299.195 227.09L327.772 194.091C331.76 189.487 338.903 189.487 342.891 194.091L396.506 256H461C463.761 256 466 253.761 466 251V127C466 124.239 463.761 122 461 122H51ZM383.277 256L335.332 200.638L305.074 235.576L319.224 256H383.277ZM307.058 256L256.33 182.78L205.602 256H307.058ZM193.436 256L212.679 228.226L177.33 167L125.946 256H193.436ZM294 173C294 170.239 296.239 168 299 168C301.761 168 304 170.239 304 173C304 175.761 301.761 178 299 178C296.239 178 294 175.761 294 173ZM220.412 328C212.128 328 205.412 334.716 205.412 343V423C205.412 431.284 212.128 438 220.412 438H300.412C308.696 438 315.412 431.284 315.412 423V343C315.412 334.716 308.696 328 300.412 328H220.412ZM215.412 343C215.412 340.239 217.651 338 220.412 338H300.412C303.174 338 305.412 340.239 305.412 343V420.082L265.266 386.838C261.566 383.774 256.21 383.774 252.51 386.838L215.412 417.558V343ZM258.888 394.54L299.295 428H220.412C219.849 428 219.307 427.907 218.802 427.735L258.888 394.54ZM378.412 328C370.128 328 363.412 334.716 363.412 343V423C363.412 431.284 370.128 438 378.412 438H458.412C466.696 438 473.412 431.284 473.412 423V343C473.412 334.716 466.696 328 458.412 328H378.412ZM373.412 343C373.412 340.239 375.651 338 378.412 338H458.412C461.174 338 463.412 340.239 463.412 343V420.082L423.266 386.838C419.566 383.774 414.21 383.774 410.51 386.838L373.412 417.558V343ZM416.888 394.54L457.295 428H378.412C377.849 428 377.307 427.907 376.802 427.735L416.888 394.54ZM51 328C42.7157 328 36 334.716 36 343V423C36 431.284 42.7157 438 51 438H131C139.284 438 146 431.284 146 423V343C146 334.716 139.284 328 131 328H51ZM46 343C46 340.239 48.2386 338 51 338H131C133.761 338 136 340.239 136 343V420.082L95.8539 386.838C92.1539 383.774 86.7981 383.774 83.0981 386.838L46 417.558V343ZM89.476 394.54L129.883 428H51C50.4365 428 49.8949 427.907 49.3895 427.735L89.476 394.54Z" fill="black"/>
<defs>
<linearGradient id="paint0_linear" x1="512" y1="512.853" x2="-87.6624" y2="371.259" gradientUnits="userSpaceOnUse">
<stop stop-color="#390065"/>
<stop offset="1" stop-color="#54BBF6"/>
</linearGradient>
</defs>
</svg>
