<svg width="512" height="512" viewBox="0 0 512 512" fill="none" xmlns="http://www.w3.org/2000/svg">
<path fill-rule="evenodd" clip-rule="evenodd" d="M92 54C89.2386 54 87 56.2386 87 59C87 61.7614 89.2386 64 92 64H292C294.761 64 297 61.7614 297 59C297 56.2386 294.761 54 292 54H92ZM110 85C110 82.2386 112.239 80 115 80H269C271.761 80 274 82.2386 274 85C274 87.7614 271.761 90 269 90H115C112.239 90 110 87.7614 110 85ZM252 164C252 161.239 254.239 159 257 159H343C345.761 159 348 161.239 348 164C348 166.761 345.761 169 343 169H257C254.239 169 252 166.761 252 164ZM308 216C308 213.239 310.239 211 313 211H343C345.761 211 348 213.239 348 216C348 218.761 345.761 221 343 221H313C310.239 221 308 218.761 308 216ZM225 237C222.239 237 220 239.239 220 242C220 244.761 222.239 247 225 247H343C345.761 247 348 244.761 348 242C348 239.239 345.761 237 343 237H225ZM90 242C90 239.239 92.2386 237 95 237H199C201.761 237 204 239.239 204 242C204 244.761 201.761 247 199 247H95C92.2386 247 90 244.761 90 242ZM41 185C38.2386 185 36 187.239 36 190C36 192.761 38.2386 195 41 195H85C87.7614 195 90 192.761 90 190C90 187.239 87.7614 185 85 185H41ZM36 164C36 161.239 38.2386 159 41 159H231C233.761 159 236 161.239 236 164C236 166.761 233.761 169 231 169H41C38.2386 169 36 166.761 36 164ZM111 185C108.239 185 106 187.239 106 190C106 192.761 108.239 195 111 195H343C345.761 195 348 192.761 348 190C348 187.239 345.761 185 343 185H111ZM36 216C36 213.239 38.2386 211 41 211H287C289.761 211 292 213.239 292 216C292 218.761 289.761 221 287 221H41C38.2386 221 36 218.761 36 216ZM41 237C38.2386 237 36 239.239 36 242C36 244.761 38.2386 247 41 247H69C71.7614 247 74 244.761 74 242C74 239.239 71.7614 237 69 237H41ZM149 263C146.239 263 144 265.239 144 268C144 270.761 146.239 273 149 273H235C237.761 273 240 270.761 240 268C240 265.239 237.761 263 235 263H149ZM252 268C252 265.239 254.239 263 257 263H343C345.761 263 348 265.239 348 268C348 270.761 345.761 273 343 273H257C254.239 273 252 270.761 252 268Z" fill="black"/>
<path fill-rule="evenodd" clip-rule="evenodd" d="M0 37C0 16.5655 16.5655 0 37 0H346.962C367.397 0 383.962 16.5655 383.962 37V250.649L434.761 141.7L430.23 139.587C427.727 138.42 426.645 135.445 427.812 132.942C428.979 130.44 431.953 129.357 434.456 130.524L438.986 132.637L457.157 93.6658C458.324 91.1631 461.299 90.0804 463.802 91.2475L468.332 93.3603L473.825 81.5783C478.493 71.5675 490.391 67.2363 500.401 71.9043C510.41 76.5722 514.741 88.4717 510.073 98.4825L504.58 110.265L509.11 112.377C511.613 113.544 512.696 116.519 511.529 119.022L493.358 157.993C503.367 162.661 507.698 174.561 503.03 184.572L467.111 261.608C465.944 264.111 462.97 265.193 460.467 264.026C457.965 262.859 456.882 259.884 458.049 257.382L493.968 180.346C496.302 175.34 494.137 169.39 489.132 167.056L402.176 353.553L383.962 373.328V474.998C383.962 495.433 367.397 511.998 346.962 511.998H37C16.5655 511.998 0 495.433 0 474.998V37ZM373.962 384.185L368.662 389.94L366.515 394.545C363.014 402.053 354.09 405.301 346.583 401.8C346.266 401.652 345.957 401.495 345.656 401.328L322.607 422.842C317.026 428.052 307.902 425.338 306.074 417.926L301.188 398.105L277.901 420.475C271.545 426.58 260.973 422.076 260.973 413.264V359.236L232.651 433.776L223.303 430.224L251.625 355.684C255.571 345.3 270.973 348.128 270.973 359.236V413.264L294.26 390.894C299.811 385.561 309.054 388.237 310.897 395.711L315.784 415.532L339.022 393.841C337.513 390.115 337.497 385.797 339.329 381.867L341.476 377.262L347.805 328.197L373.962 272.096V37C373.962 22.0883 361.874 10 346.962 10H37C22.0883 10 10 22.0883 10 37V474.998C10 489.91 22.0883 501.998 37 501.998H346.962C361.874 501.998 373.962 489.91 373.962 474.998V384.185ZM373.962 295.758L359.308 327.188L373.962 334.022L383.962 338.685L395.555 344.092L480.07 162.83L443.823 145.926L383.962 274.31V274.312L373.962 295.759V295.758ZM383.962 349.719L373.962 345.056L356.747 337.027L352.183 372.414L365.493 378.621L389.664 352.378L383.962 349.719ZM350.081 382.467L359.143 386.693L357.453 390.319C356.286 392.821 353.311 393.904 350.809 392.737C348.307 391.57 347.224 388.595 348.391 386.093L350.081 382.467ZM501.011 94.2565L495.518 106.038L477.394 97.5863L482.887 85.8044C485.221 80.799 491.17 78.6333 496.175 80.9673C501.18 83.3013 503.345 89.2511 501.011 94.2565ZM448.048 136.863L464.106 102.423L500.354 119.328L484.296 153.767L448.048 136.863ZM45.9964 386C45.9964 352.862 72.8568 326 105.99 326C139.123 326 165.983 352.862 165.983 386C165.983 419.138 139.123 446 105.99 446C72.8568 446 45.9964 419.138 45.9964 386ZM105.99 316C67.333 316 35.9964 347.341 35.9964 386C35.9964 424.659 67.333 456 105.99 456C144.647 456 175.983 424.659 175.983 386C175.983 347.341 144.647 316 105.99 316ZM91.6688 410.967C92.7597 412.058 94.2293 412.54 95.6545 412.411C96.8011 412.322 97.9229 411.839 98.7998 410.962L141.222 368.536C143.174 366.583 143.174 363.417 141.222 361.465C139.27 359.512 136.104 359.512 134.152 361.465L95.2315 400.389L77.5286 382.686C75.5761 380.733 72.4104 380.733 70.4579 382.686C68.5054 384.638 68.5054 387.804 70.4579 389.756L91.6688 410.967Z" fill="url(#paint0_linear)"/>
<defs>
<linearGradient id="paint0_linear" x1="511.948" y1="512" x2="-0.0519054" y2="0.0519107" gradientUnits="userSpaceOnUse">
<stop stop-color="#390065"/>
<stop offset="1" stop-color="#54BBF6"/>
</linearGradient>
</defs>
</svg>
