<svg width="512" height="512" viewBox="0 0 512 512" fill="none" xmlns="http://www.w3.org/2000/svg">
<path fill-rule="evenodd" clip-rule="evenodd" d="M158 120C149.716 120 143 126.716 143 135V187C143 195.284 149.716 202 158 202H210C218.284 202 225 195.284 225 187V135C225 126.716 218.284 120 210 120H158ZM153 135C153 132.239 155.239 130 158 130H210C212.761 130 215 132.239 215 135V187C215 189.761 212.761 192 210 192H158C155.239 192 153 189.761 153 187V135ZM240 148C240 145.239 242.239 143 245 143H365C367.761 143 370 145.239 370 148C370 150.761 367.761 153 365 153H245C242.239 153 240 150.761 240 148ZM240 174C240 171.239 242.239 169 245 169H329C331.761 169 334 171.239 334 174C334 176.761 331.761 179 329 179H245C242.239 179 240 176.761 240 174ZM245 251C242.239 251 240 253.239 240 256C240 258.761 242.239 261 245 261H365C367.761 261 370 258.761 370 256C370 253.239 367.761 251 365 251H245ZM240 282C240 279.239 242.239 277 245 277H329C331.761 277 334 279.239 334 282C334 284.761 331.761 287 329 287H245C242.239 287 240 284.761 240 282ZM245 359C242.239 359 240 361.239 240 364C240 366.761 242.239 369 245 369H365C367.761 369 370 366.761 370 364C370 361.239 367.761 359 365 359H245ZM240 390C240 387.239 242.239 385 245 385H329C331.761 385 334 387.239 334 390C334 392.761 331.761 395 329 395H245C242.239 395 240 392.761 240 390ZM158 336C149.716 336 143 342.716 143 351V403C143 411.284 149.716 418 158 418H210C218.284 418 225 411.284 225 403V351C225 342.716 218.284 336 210 336H158ZM153 351C153 348.239 155.239 346 158 346H210C212.761 346 215 348.239 215 351V403C215 405.761 212.761 408 210 408H158C155.239 408 153 405.761 153 403V351ZM143 243C143 234.716 149.716 228 158 228H210C218.284 228 225 234.716 225 243V295C225 303.284 218.284 310 210 310H158C149.716 310 143 303.284 143 295V243ZM158 238C155.239 238 153 240.239 153 243V295C153 297.761 155.239 300 158 300H210C212.761 300 215 297.761 215 295V243C215 240.239 212.761 238 210 238H158Z" fill="black"/>
<path fill-rule="evenodd" clip-rule="evenodd" d="M101 0C80.5655 0 64 16.5655 64 37V474.998C64 495.433 80.5655 511.998 101 511.998H411C431.435 511.998 448 495.433 448 474.998V37C448 16.5655 431.435 0 411 0H101ZM74 37C74 22.0883 86.0883 10 101 10H411C425.912 10 438 22.0883 438 37V474.998C438 489.91 425.912 501.998 411 501.998H101C86.0883 501.998 74 489.91 74 474.998V37ZM391 56H357H352H160H155H121C112.716 56 106 62.7157 106 71V441C106 449.284 112.716 456 121 456H391C399.284 456 406 449.284 406 441V71C406 62.7157 399.284 56 391 56ZM357 66V71C357 82.598 347.598 92 336 92H176C164.402 92 155 82.598 155 71V66H121C118.239 66 116 68.2386 116 71V441C116 443.761 118.239 446 121 446H391C393.761 446 396 443.761 396 441V71C396 68.2386 393.761 66 391 66H357ZM165 71V66H347V71C347 77.0751 342.075 82 336 82H176C169.925 82 165 77.0751 165 71ZM251 479C251 476.239 253.239 474 256 474C258.761 474 261 476.239 261 479C261 481.761 258.761 484 256 484C253.239 484 251 481.761 251 479ZM181 28C178.239 28 176 30.2386 176 33C176 35.7614 178.239 38 181 38H301C303.761 38 306 35.7614 306 33C306 30.2386 303.761 28 301 28H181ZM316 33C316 30.2386 318.239 28 321 28C323.761 28 326 30.2386 326 33C326 35.7614 323.761 38 321 38C318.239 38 316 35.7614 316 33ZM175.021 291.163C176.938 293.08 180.025 293.115 181.984 291.267C182.177 291.124 182.361 290.965 182.536 290.79L219.736 253.59C221.689 251.637 221.689 248.471 219.736 246.519C217.784 244.566 214.618 244.566 212.665 246.519L178.592 280.592L166.536 268.535C164.583 266.583 161.417 266.583 159.464 268.535C157.512 270.488 157.512 273.654 159.464 275.607L175.021 291.163Z" fill="black"/>
<path fill-rule="evenodd" clip-rule="evenodd" d="M101 0C80.5655 0 64 16.5655 64 37V474.998C64 495.433 80.5655 511.998 101 511.998H411C431.435 511.998 448 495.433 448 474.998V37C448 16.5655 431.435 0 411 0H101ZM74 37C74 22.0883 86.0883 10 101 10H411C425.912 10 438 22.0883 438 37V474.998C438 489.91 425.912 501.998 411 501.998H101C86.0883 501.998 74 489.91 74 474.998V37ZM391 56H357H352H160H155H121C112.716 56 106 62.7157 106 71V441C106 449.284 112.716 456 121 456H391C399.284 456 406 449.284 406 441V71C406 62.7157 399.284 56 391 56ZM357 66V71C357 82.598 347.598 92 336 92H176C164.402 92 155 82.598 155 71V66H121C118.239 66 116 68.2386 116 71V441C116 443.761 118.239 446 121 446H391C393.761 446 396 443.761 396 441V71C396 68.2386 393.761 66 391 66H357ZM165 71V66H347V71C347 77.0751 342.075 82 336 82H176C169.925 82 165 77.0751 165 71ZM251 479C251 476.239 253.239 474 256 474C258.761 474 261 476.239 261 479C261 481.761 258.761 484 256 484C253.239 484 251 481.761 251 479ZM181 28C178.239 28 176 30.2386 176 33C176 35.7614 178.239 38 181 38H301C303.761 38 306 35.7614 306 33C306 30.2386 303.761 28 301 28H181ZM316 33C316 30.2386 318.239 28 321 28C323.761 28 326 30.2386 326 33C326 35.7614 323.761 38 321 38C318.239 38 316 35.7614 316 33ZM175.021 291.163C176.938 293.08 180.025 293.115 181.984 291.267C182.177 291.124 182.361 290.965 182.536 290.79L219.736 253.59C221.689 251.637 221.689 248.471 219.736 246.519C217.784 244.566 214.618 244.566 212.665 246.519L178.592 280.592L166.536 268.535C164.583 266.583 161.417 266.583 159.464 268.535C157.512 270.488 157.512 273.654 159.464 275.607L175.021 291.163Z" fill="url(#paint0_linear)"/>
<defs>
<linearGradient id="paint0_linear" x1="0.507814" y1="2.45908e-07" x2="508.506" y2="504" gradientUnits="userSpaceOnUse">
<stop stop-color="#54BBF6"/>
<stop offset="1" stop-color="#390065"/>
</linearGradient>
</defs>
</svg>
