<svg width="512" height="512" viewBox="0 0 512 512" fill="none" xmlns="http://www.w3.org/2000/svg">
<path fill-rule="evenodd" clip-rule="evenodd" d="M85.0202 0C38.076 0 0.0201793 38.0559 0.0201793 85.0001V131.562C0.0201793 162.472 16.5191 189.528 41.1907 204.405L41.346 242.432C41.3814 251.114 51.7047 255.63 58.1041 249.762L94.3132 216.562H415.038L451.095 249.722C457.493 255.606 467.835 251.088 467.864 242.395L467.987 206.045C494.226 191.575 512 163.644 512 131.562V85C512 38.0558 473.945 0 427 0H85.0202ZM51.3459 242.391L51.1823 202.342C51.1927 202.206 51.1978 202.067 51.1972 201.927L51.1957 201.572C51.1881 199.694 50.122 197.992 48.4832 197.076C25.5356 184.25 10.0202 159.718 10.0202 131.562V85.0001C10.0202 43.5787 43.5988 10 85.0202 10H427C468.422 10 502 43.5786 502 85V131.562C502 160.796 485.274 186.123 460.87 198.497C459.127 199.38 457.974 201.137 457.966 203.091L457.965 203.402C457.964 203.597 457.974 203.789 457.994 203.976L457.864 242.361L427.902 214.806C427.855 214.741 427.8 214.679 427.736 214.62L421.024 208.481L420.029 207.565L420.012 207.583C419.145 206.923 418.082 206.562 416.984 206.562H92.2992C91.0501 206.562 89.8463 207.029 88.9246 207.872L83.6046 212.738C83.47 212.861 83.3546 212.993 83.2576 213.131L51.3459 242.391ZM109.358 511.732H99.2576L106.451 469.242L102.439 463.205C102.326 463.285 102.214 463.365 102.103 463.445C102.025 463.502 101.947 463.558 101.869 463.614L101.759 463.694L101.752 463.699C99.8201 465.098 98.1647 466.296 95.3084 466.296C92.0558 466.296 89.0044 464.479 87.5016 461.469L71.795 429.998L36.0456 443.854L36.0138 443.868C34.494 444.515 9.96236 454.97 9.96236 477.214V511.732H0V477.213C0 447.89 30.9629 435.173 32.2725 434.635L32.2869 434.629L32.3415 434.607L32.3806 434.592L91.8619 411.537V398.312C81.5987 390.86 74.8498 379.552 73.1903 366.883C68.476 366.55 64.1031 364.792 60.5324 361.721C55.8647 357.708 53.1885 351.87 53.1885 345.701C53.1885 340.782 54.9974 336.143 58.3237 332.374V313.445C58.3237 279.416 86.0141 251.732 120.05 251.732C154.086 251.732 181.777 279.416 181.777 313.445V331.89C185.069 335.698 186.915 340.584 186.915 345.702C186.915 351.868 184.238 357.707 179.571 361.72C175.998 364.792 171.623 366.552 166.907 366.884C165.261 379.321 158.703 390.222 149.245 397.575V411.537L208.791 434.593L208.825 434.605L208.853 434.617L208.886 434.63C209.959 435.072 241.173 448.774 241.173 478.214V511.732H231.212V478.214C231.212 455.87 206.417 444.407 205.123 443.852L169.345 430L153.64 461.47C152.141 464.472 149.093 466.296 145.834 466.296C142.972 466.296 141.303 465.086 139.399 463.705C139.171 463.54 138.94 463.373 138.703 463.205L134.692 469.242L141.886 511.732H131.779L125.241 473.108H115.897L109.358 511.732ZM160.016 426.388L145.374 455.726L144.262 454.937C141.749 453.152 135.302 448.573 127.765 443.222L129.808 440.7L143.169 424.212L145.851 420.903L160.016 426.388ZM130.576 457.435L126.779 463.15H114.359L110.562 457.435L120.57 450.329L130.576 457.435ZM101.822 413.144V403.825C107.873 406.264 114.34 407.394 120.655 407.394C127.185 407.394 133.589 406.003 139.284 403.513V413.185L120.57 436.279L101.822 413.144ZM176.954 345.702C176.953 348.964 175.54 352.05 173.076 354.169C171.447 355.57 169.48 356.465 167.325 356.816V334.59C173.049 335.519 176.954 340.266 176.954 345.702ZM72.7785 356.816C66.9892 355.876 63.1495 351.091 63.1495 345.701C63.1495 340.378 67.5636 336.045 72.7785 334.84V356.816ZM73.0462 324.693C71.4597 324.875 69.6415 325.305 68.2861 325.766V313.445C68.2861 284.908 91.5073 261.691 120.051 261.691C148.595 261.691 171.816 284.908 171.816 313.445V325.424C170.368 324.984 168.867 324.693 167.325 324.556V324.518C167.325 323.508 167.325 322.752 167.176 322.027C166.73 319.863 164.955 317.974 157.884 310.446L157.884 310.445C156.144 308.594 154.085 306.401 151.645 303.779C148.754 300.674 143.971 300.023 140.332 302.4C122.979 313.733 101.812 319.426 82.282 318.024C77.9981 317.703 74.096 320.524 73.0462 324.693ZM120.656 397.434C97.9487 397.435 82.7402 379.824 82.7402 360.736V328.034C104.239 329.292 126.78 322.907 144.989 311.248C147.427 313.864 149.486 316.06 151.194 317.88L151.195 317.882C154.538 321.446 156.53 323.57 157.364 324.592V360.736C157.364 380.95 140.877 397.434 120.656 397.434ZM95.7659 455.726L81.1239 426.388L95.2639 420.913L113.354 443.237C104.949 449.204 97.9171 454.198 96.1291 455.468L95.7659 455.726ZM49.4479 511.732H39.4869V485.639C39.4869 482.889 41.7168 480.659 44.4674 480.659C47.218 480.659 49.4479 482.889 49.4479 485.639V511.732ZM201.69 511.732V485.639C201.69 482.889 199.46 480.659 196.71 480.659C193.959 480.659 191.729 482.889 191.729 485.639V511.732H201.69ZM402.622 511.732H412.722L405.529 469.242L409.54 463.205C409.775 463.371 410.003 463.536 410.227 463.699C412.159 465.098 413.815 466.296 416.671 466.296C419.924 466.296 422.975 464.479 424.478 461.469L440.184 429.998L475.934 443.854L475.965 443.868C477.483 444.514 502.017 454.969 502.017 477.214V511.732H511.979V477.213C511.979 447.89 481.015 435.172 479.707 434.635L479.693 434.629C479.661 434.616 479.63 434.604 479.599 434.592L420.118 411.537V398.312C430.381 390.86 437.13 379.552 438.789 366.883C443.503 366.55 447.876 364.792 451.447 361.721C456.115 357.708 458.791 351.87 458.791 345.701C458.791 340.782 456.982 336.143 453.656 332.374V313.445C453.656 279.416 425.965 251.732 391.929 251.732C357.893 251.732 330.203 279.416 330.202 313.445V331.89C326.911 335.698 325.064 340.584 325.064 345.702C325.064 351.868 327.742 357.708 332.408 361.72C335.981 364.792 340.357 366.552 345.072 366.884C346.719 379.321 353.276 390.222 362.734 397.575V411.537L303.188 434.593C303.167 434.6 303.147 434.608 303.126 434.617L303.093 434.63C302.02 435.072 270.806 448.774 270.806 478.214V511.732H280.767V478.214C280.767 455.87 305.562 444.407 306.857 443.852L342.634 430L358.339 461.47C359.839 464.472 362.886 466.296 366.145 466.296C369.007 466.296 370.676 465.086 372.581 463.705C372.808 463.54 373.039 463.373 373.276 463.205L377.288 469.242L370.094 511.732H380.2L386.739 473.108H396.083L402.622 511.732ZM351.964 426.388L366.606 455.726L367.717 454.937L368.1 454.665L368.403 454.45C371.281 452.406 377.288 448.14 384.215 443.222L382.171 440.7L370.779 426.642L366.129 420.903L351.964 426.388ZM381.403 457.435L385.2 463.15H397.62L401.417 457.435L391.41 450.329L381.403 457.435ZM410.157 413.144V403.825C404.106 406.264 397.639 407.394 391.324 407.394C384.794 407.394 378.391 406.003 372.696 403.513V413.185L391.41 436.279L410.157 413.144ZM335.026 345.702C335.026 348.964 336.44 352.05 338.903 354.169C340.532 355.57 342.5 356.465 344.655 356.816V334.59C338.93 335.519 335.026 340.266 335.026 345.702ZM439.201 356.816C444.99 355.876 448.83 351.091 448.83 345.701C448.83 340.378 444.416 336.045 439.201 334.84V356.816ZM438.933 324.694C440.52 324.875 442.338 325.305 443.693 325.766V313.445C443.693 284.908 420.472 261.691 391.928 261.691C363.385 261.691 340.164 284.908 340.164 313.445V325.424C341.611 324.984 343.113 324.693 344.654 324.556V324.518C344.654 323.508 344.654 322.752 344.803 322.027C345.249 319.863 347.024 317.973 354.096 310.445L354.1 310.441L354.112 310.428C355.848 308.58 357.903 306.393 360.334 303.779C363.225 300.674 368.008 300.023 371.648 302.4C389 313.733 410.167 319.426 429.697 318.024C433.981 317.703 437.883 320.524 438.933 324.694ZM391.324 397.434C414.031 397.435 429.239 379.824 429.239 360.736V328.034C407.74 329.292 385.199 322.907 366.99 311.248C364.567 313.849 362.517 316.035 360.815 317.849L360.799 317.866L360.786 317.88C357.442 321.445 355.449 323.57 354.616 324.592V360.736C354.616 380.95 371.102 397.434 391.324 397.434ZM416.214 455.726L430.856 426.388L416.716 420.913L398.626 443.237C407.031 449.204 414.062 454.198 415.85 455.469L416.214 455.726ZM462.532 511.732H472.493V485.639C472.493 482.889 470.263 480.659 467.512 480.659C464.761 480.659 462.532 482.889 462.532 485.639V511.732ZM310.289 511.732V485.639C310.289 482.889 312.519 480.659 315.27 480.659C318.02 480.659 320.25 482.889 320.25 485.639V511.732H310.289Z" fill="url(#paint0_linear)"/>
<path fill-rule="evenodd" clip-rule="evenodd" d="M56 108C56 80.3858 78.3858 58 106 58C133.614 58 156 80.3858 156 108C156 135.614 133.614 158 106 158C78.3858 158 56 135.614 56 108ZM106 48C72.8629 48 46 74.8629 46 108C46 141.137 72.8629 168 106 168C139.137 168 166 141.137 166 108C166 74.8629 139.137 48 106 48ZM101 73V66H111V73.0201C118.316 73.3494 124.885 77.7009 128.024 84.371L118.976 88.629C117.487 85.4649 114.439 83.3548 111 83.0407V103.025C121.581 103.546 130 112.29 130 123C130 133.71 121.581 142.454 111 142.975V150H101V143H99.8941C92.2232 143 85.2422 138.57 81.9759 131.629L91.0241 127.371C92.641 130.807 96.0968 133 99.8941 133H101V113H100C88.9543 113 80 104.046 80 93C80 81.9543 88.9543 73 100 73H101ZM100 83H101V103H100C94.4771 103 90 98.5228 90 93C90 87.4772 94.4772 83 100 83ZM120 123C120 128.185 116.053 132.449 111 132.951V113.049C116.053 113.551 120 117.815 120 123Z" fill="black"/>
<path fill-rule="evenodd" clip-rule="evenodd" d="M356 108C356 80.3858 378.386 58 406 58C433.614 58 456 80.3858 456 108C456 135.614 433.614 158 406 158C378.386 158 356 135.614 356 108ZM406 48C372.863 48 346 74.8629 346 108C346 141.137 372.863 168 406 168C439.137 168 466 141.137 466 108C466 74.8629 439.137 48 406 48ZM401 83C401 80.2386 403.239 78 406 78C408.761 78 411 80.2386 411 83V103.858C411 105.184 411.527 106.456 412.464 107.393L427.213 122.142C429.166 124.095 429.166 127.261 427.213 129.213C425.261 131.166 422.095 131.166 420.142 129.213L402.863 111.934C402.598 111.669 402.364 111.375 402.165 111.058L401.924 110.674C401.643 110.228 401.435 109.739 401.307 109.228L401.149 108.597C401.05 108.201 401 107.793 401 107.384V83Z" fill="black"/>
<path fill-rule="evenodd" clip-rule="evenodd" d="M217 48C205.402 48 196 57.402 196 69V147C196 158.598 205.402 168 217 168H295C306.598 168 316 158.598 316 147V69C316 57.402 306.598 48 295 48H217ZM206 69C206 62.9249 210.925 58 217 58H295C301.075 58 306 62.9249 306 69V85H206V69ZM206 95H306V147C306 153.075 301.075 158 295 158H217C210.925 158 206 153.075 206 147V95ZM221 67C218.239 67 216 69.2386 216 72C216 74.7614 218.239 77 221 77C223.761 77 226 74.7614 226 72C226 69.2386 223.761 67 221 67ZM236 72C236 69.2386 238.239 67 241 67C243.761 67 246 69.2386 246 72C246 74.7614 243.761 77 241 77C238.239 77 236 74.7614 236 72ZM261 67C258.239 67 256 69.2386 256 72C256 74.7614 258.239 77 261 77C263.761 77 266 74.7614 266 72C266 69.2386 263.761 67 261 67ZM247.147 137.82C247.119 137.792 247.092 137.764 247.065 137.736L236.536 127.207C234.583 125.254 234.583 122.088 236.536 120.136C238.488 118.183 241.654 118.183 243.607 120.136L250.683 127.212L268.36 109.536C270.312 107.583 273.478 107.583 275.431 109.536C277.384 111.488 277.384 114.654 275.431 116.607L254.218 137.82C252.265 139.772 249.099 139.772 247.147 137.82Z" fill="black"/>
<defs>
<linearGradient id="paint0_linear" x1="512.162" y1="511.732" x2="0.162446" y2="-0.248268" gradientUnits="userSpaceOnUse">
<stop stop-color="#390065"/>
<stop offset="1" stop-color="#54BBF6"/>
</linearGradient>
</defs>
</svg>
