<svg width="512" height="512" viewBox="0 0 512 512" fill="none" xmlns="http://www.w3.org/2000/svg">
<path fill-rule="evenodd" clip-rule="evenodd" d="M211.5 54C182.505 54 159 77.5051 159 106.5C159 135.495 182.505 159 211.5 159C240.495 159 264 135.495 264 106.5C264 77.5051 240.495 54 211.5 54ZM149 106.5C149 71.9822 176.982 44 211.5 44C246.018 44 274 71.9822 274 106.5C274 141.018 246.018 169 211.5 169C176.982 169 149 141.018 149 106.5ZM308 49C305.239 49 303 51.2386 303 54C303 56.7614 305.239 59 308 59H338.936C341.697 59 343.936 56.7614 343.936 54C343.936 51.2386 341.697 49 338.936 49H308ZM308 75C305.239 75 303 77.2386 303 80C303 82.7614 305.239 85 308 85H362.385C365.146 85 367.385 82.7614 367.385 80C367.385 77.2386 365.146 75 362.385 75H308ZM155 199C152.239 199 150 201.239 150 204C150 206.761 152.239 209 155 209H176.795C179.556 209 181.795 206.761 181.795 204C181.795 201.239 179.556 199 176.795 199H155ZM192.756 199C189.994 199 187.756 201.239 187.756 204C187.756 206.761 189.994 209 192.756 209H224.486C227.248 209 229.486 206.761 229.486 204C229.486 201.239 227.248 199 224.486 199H192.756ZM235.847 204C235.847 201.239 238.085 199 240.847 199H269C271.762 199 274 201.239 274 204C274 206.761 271.762 209 269 209H240.847C238.085 209 235.847 206.761 235.847 204ZM240.847 279C238.085 279 235.847 281.239 235.847 284C235.847 286.761 238.085 289 240.847 289H269C271.762 289 274 286.761 274 284C274 281.239 271.762 279 269 279H240.847ZM150 230C150 227.239 152.239 225 155 225H210.974C213.735 225 215.974 227.239 215.974 230C215.974 232.761 213.735 235 210.974 235H155C152.239 235 150 232.761 150 230ZM228.128 357C225.367 357 223.128 359.239 223.128 362C223.128 364.761 225.367 367 228.128 367H268.999C271.761 367 273.999 364.761 273.999 362C273.999 359.239 271.761 357 268.999 357H228.128ZM223.128 230C223.128 227.239 225.367 225 228.128 225H268.999C271.761 225 273.999 227.239 273.999 230C273.999 232.761 271.761 235 268.999 235H228.128C225.367 235 223.128 232.761 223.128 230ZM155 357C152.239 357 150 359.239 150 362C150 364.761 152.239 367 155 367H212C214.761 367 217 364.761 217 362C217 359.239 214.761 357 212 357H155ZM178.616 256C178.616 253.239 180.855 251 183.616 251H269C271.762 251 274 253.239 274 256C274 258.761 271.762 261 269 261H183.616C180.855 261 178.616 258.761 178.616 256ZM155 251C152.239 251 150 253.239 150 256C150 258.761 152.239 261 155 261H166.461C169.223 261 171.461 258.761 171.461 256C171.461 253.239 169.223 251 166.461 251H155ZM150 310C150 307.239 152.239 305 155 305H166.461C169.223 305 171.461 307.239 171.461 310C171.461 312.761 169.223 315 166.461 315H155C152.239 315 150 312.761 150 310ZM155 279C152.239 279 150 281.239 150 284C150 286.761 152.239 289 155 289H224.487C227.248 289 229.487 286.761 229.487 284C229.487 281.239 227.248 279 224.487 279H155ZM177.821 310C177.821 307.239 180.06 305 182.821 305H269C271.762 305 274 307.239 274 310C274 312.761 271.762 315 269 315H182.821C180.06 315 177.821 312.761 177.821 310ZM155 331C152.239 331 150 333.239 150 336C150 338.761 152.239 341 155 341H269C271.761 341 274 338.761 274 336C274 333.239 271.761 331 269 331H155ZM235.847 386C235.847 383.239 238.085 381 240.847 381H269C271.762 381 274 383.239 274 386C274 388.761 271.762 391 269 391H240.847C238.085 391 235.847 388.761 235.847 386ZM155 407C152.239 407 150 409.239 150 412C150 414.761 152.239 417 155 417H166.461C169.223 417 171.461 414.761 171.461 412C171.461 409.239 169.223 407 166.461 407H155ZM150 386C150 383.239 152.239 381 155 381H224.487C227.248 381 229.487 383.239 229.487 386C229.487 388.761 227.248 391 224.487 391H155C152.239 391 150 388.761 150 386ZM182.821 407C180.06 407 177.821 409.239 177.821 412C177.821 414.761 180.06 417 182.821 417H269C271.762 417 274 414.761 274 412C274 409.239 271.762 407 269 407H182.821ZM150 438C150 435.239 152.239 433 155 433H269C271.761 433 274 435.239 274 438C274 440.761 271.761 443 269 443H155C152.239 443 150 440.761 150 438ZM303 121C303 118.239 305.239 116 308 116H329.795C332.556 116 334.795 118.239 334.795 121C334.795 123.761 332.556 126 329.795 126H308C305.239 126 303 123.761 303 121ZM345.756 116C342.994 116 340.756 118.239 340.756 121C340.756 123.761 342.994 126 345.756 126H377.487C380.248 126 382.487 123.761 382.487 121C382.487 118.239 380.248 116 377.487 116H345.756ZM388.847 121C388.847 118.239 391.085 116 393.847 116H422C424.762 116 427 118.239 427 121C427 123.761 424.762 126 422 126H393.847C391.085 126 388.847 123.761 388.847 121ZM308 142C305.239 142 303 144.239 303 147C303 149.761 305.239 152 308 152H363.974C366.736 152 368.974 149.761 368.974 147C368.974 144.239 366.736 142 363.974 142H308ZM376.128 147C376.128 144.239 378.367 142 381.128 142H422C424.761 142 427 144.239 427 147C427 149.761 424.761 152 422 152H381.128C378.367 152 376.128 149.761 376.128 147ZM336.615 168C333.854 168 331.615 170.239 331.615 173C331.615 175.761 333.854 178 336.615 178H422C424.761 178 427 175.761 427 173C427 170.239 424.761 168 422 168H336.615ZM303 173C303 170.239 305.239 168 308 168H319.462C322.223 168 324.462 170.239 324.462 173C324.462 175.761 322.223 178 319.462 178H308C305.239 178 303 175.761 303 173ZM388.847 204C388.847 201.239 391.085 199 393.847 199H422C424.762 199 427 201.239 427 204C427 206.761 424.762 209 422 209H393.847C391.085 209 388.847 206.761 388.847 204ZM381.128 433C378.367 433 376.128 435.239 376.128 438C376.128 440.761 378.367 443 381.128 443H422C424.761 443 427 440.761 427 438C427 435.239 424.761 433 422 433H381.128ZM303 438C303 435.239 305.239 433 308 433H365C367.761 433 370 435.239 370 438C370 440.761 367.761 443 365 443H308C305.239 443 303 440.761 303 438ZM308 459C305.239 459 303 461.239 303 464C303 466.761 305.239 469 308 469H422C424.761 469 427 466.761 427 464C427 461.239 424.761 459 422 459H308ZM223.128 464C223.128 461.239 225.367 459 228.128 459H269C271.761 459 274 461.239 274 464C274 466.761 271.761 469 269 469H228.128C225.367 469 223.128 466.761 223.128 464ZM155 459C152.239 459 150 461.239 150 464C150 466.761 152.239 469 155 469H212C214.761 469 217 466.761 217 464C217 461.239 214.761 459 212 459H155ZM303 230C303 227.239 305.239 225 308 225H319.462C322.223 225 324.462 227.239 324.462 230C324.462 232.761 322.223 235 319.462 235H308C305.239 235 303 232.761 303 230ZM308 199C305.239 199 303 201.239 303 204C303 206.761 305.239 209 308 209H377.487C380.249 209 382.487 206.761 382.487 204C382.487 201.239 380.249 199 377.487 199H308ZM330.82 230C330.82 227.239 333.059 225 335.82 225H422C424.761 225 427 227.239 427 230C427 232.761 424.761 235 422 235H335.82C333.059 235 330.82 232.761 330.82 230ZM308 407C305.239 407 303 409.239 303 412C303 414.761 305.239 417 308 417H422C424.761 417 427 414.761 427 412C427 409.239 424.761 407 422 407H308ZM318 265C309.716 265 303 271.716 303 280V367C303 375.284 309.716 382 318 382H412C420.284 382 427 375.284 427 367V280C427 271.716 420.284 265 412 265H318ZM313 280C313 277.239 315.239 275 318 275H412C414.761 275 417 277.239 417 280V367C417 369.761 414.761 372 412 372H318C315.239 372 313 369.761 313 367V280Z" fill="black"/>
<path fill-rule="evenodd" clip-rule="evenodd" d="M142 0C121.565 0 105 16.5655 105 37V151H95.9013C90.1826 151 85.1977 154.892 83.8107 160.44L79.068 179.411C78.8717 180.196 78.2252 180.98 77.1761 181.371C75.4349 182.02 73.7225 182.729 72.0416 183.494C71.0251 183.957 70.0162 183.86 69.323 183.444L52.0423 173.076C47.1385 170.133 40.8616 170.906 36.8178 174.95L23.9504 187.817C19.9066 191.861 19.1339 198.138 22.0761 203.042L32.4444 220.322C32.8603 221.015 32.9574 222.024 32.4946 223.041C31.7292 224.722 31.0205 226.435 30.371 228.176C29.9797 229.225 29.1963 229.872 28.411 230.068L9.44004 234.811C3.89207 236.198 0 241.183 0 246.901V265.099C0 270.817 3.89207 275.802 9.44004 277.189L28.411 281.932C29.1963 282.128 29.9797 282.775 30.371 283.824C30.9683 285.425 31.6157 287.003 32.3111 288.553C32.7652 289.566 32.6664 290.567 32.253 291.256L22.0761 308.218C19.1339 313.122 19.9066 319.398 23.9504 323.442L36.8178 336.31C40.8616 340.353 47.1385 341.126 52.0423 338.184L68.6267 328.233C69.3267 327.813 70.3477 327.719 71.3708 328.197C73.2664 329.081 75.2026 329.893 77.1761 330.629C78.2252 331.02 78.8717 331.804 79.068 332.589L83.8107 351.56C85.1977 357.108 90.1826 361 95.9013 361H105V475C105 495.435 121.565 512 142 512H475C495.435 512 512 495.435 512 475V37C512 16.5655 495.435 0 475 0H142ZM105 351V308.761C75.861 308.761 52.2392 285.139 52.2392 256C52.2392 226.861 75.861 203.239 105 203.239V161H95.9013C94.7713 161 93.7862 161.769 93.5122 162.865L88.7694 181.836C87.7004 186.112 84.5098 189.309 80.6707 190.74C79.1497 191.308 77.6537 191.927 76.1849 192.595C72.4605 194.291 67.9517 194.283 64.1781 192.019L46.8973 181.651C45.9283 181.069 44.688 181.222 43.8889 182.021L31.0214 194.888C30.2224 195.687 30.0697 196.928 30.6511 197.897L41.0194 215.177C43.2836 218.951 43.2914 223.46 41.5958 227.184C40.927 228.653 40.3079 230.149 39.7405 231.671C38.3086 235.51 35.1124 238.7 30.8363 239.769L11.8654 244.512C10.7691 244.786 10 245.771 10 246.901V265.099C10 266.229 10.7691 267.214 11.8654 267.488L30.8364 272.231C35.1124 273.3 38.3086 276.49 39.7405 280.329C40.2623 281.728 40.8278 283.106 41.4355 284.461C43.1 288.172 43.0782 292.651 40.8279 296.401L30.6511 313.363C30.0697 314.332 30.2224 315.572 31.0214 316.371L43.8889 329.239C44.688 330.038 45.9283 330.19 46.8973 329.609L63.4817 319.658C67.2939 317.371 71.8532 317.387 75.5988 319.134C77.2551 319.907 78.9468 320.617 80.6707 321.26C84.5098 322.691 87.7004 325.888 88.7694 330.164L93.5122 349.135C93.7862 350.231 94.7713 351 95.9013 351H105ZM105 213.239C81.3838 213.239 62.2392 232.384 62.2392 256C62.2392 279.616 81.3838 298.761 105 298.761V213.239ZM502 475C502 487.852 493.02 498.607 480.992 501.333C487.788 494.624 492 485.304 492 475V37C492 26.6961 487.788 17.3759 480.992 10.6672C493.02 13.3927 502 24.1476 502 37V475ZM142 10H435C449.912 10 462 22.0883 462 37V475C462 489.912 449.912 502 435 502H142C127.088 502 115 489.912 115 475V37C115 22.0883 127.088 10 142 10ZM460.992 501.333C467.788 494.624 472 485.304 472 475V37C472 26.6961 467.788 17.3759 460.992 10.6672C473.02 13.3927 482 24.1476 482 37V475C482 487.852 473.02 498.607 460.992 501.333Z" fill="url(#paint0_linear)"/>
<defs>
<linearGradient id="paint0_linear" x1="513" y1="512" x2="20.9552" y2="-19.4032" gradientUnits="userSpaceOnUse">
<stop stop-color="#390065"/>
<stop offset="1" stop-color="#54BBF6"/>
</linearGradient>
</defs>
</svg>
