<svg width="512" height="512" viewBox="0 0 512 512" fill="none" xmlns="http://www.w3.org/2000/svg">
<path fill-rule="evenodd" clip-rule="evenodd" d="M85 129C82.2386 129 80 131.239 80 134C80 136.761 82.2386 139 85 139H201C203.761 139 206 136.761 206 134C206 131.239 203.761 129 201 129H85ZM80 160C80 157.239 82.2386 155 85 155H237C239.761 155 242 157.239 242 160C242 162.761 239.761 165 237 165H85C82.2386 165 80 162.761 80 160ZM80 218C80 215.239 82.2386 213 85 213H155C157.761 213 160 215.239 160 218C160 220.761 157.761 223 155 223H85C82.2386 223 80 220.761 80 218ZM180 213C177.239 213 175 215.239 175 218C175 220.761 177.239 223 180 223H275C277.761 223 280 220.761 280 218C280 215.239 277.761 213 275 213H180ZM296 218C296 215.239 298.239 213 301 213H387C389.761 213 392 215.239 392 218C392 220.761 389.761 223 387 223H301C298.239 223 296 220.761 296 218ZM85 239C82.2386 239 80 241.239 80 244C80 246.761 82.2386 249 85 249H241C243.761 249 246 246.761 246 244C246 241.239 243.761 239 241 239H85ZM264 244C264 241.239 266.239 239 269 239H387C389.761 239 392 241.239 392 244C392 246.761 389.761 249 387 249H269C266.239 249 264 246.761 264 244Z" fill="black"/>
<path fill-rule="evenodd" clip-rule="evenodd" d="M240.705 12.428C239.125 6.1159 243.898 0 250.405 0H377.594C384.101 0 388.875 6.11587 387.295 12.428L370.404 79.9124H379.006C381.764 79.9124 384 82.1484 384 84.9067C384 87.665 381.764 89.901 379.006 89.901H360.439C360.325 89.9048 360.211 89.9068 360.097 89.9068H338.25C338.247 90.1358 338.229 90.3673 338.194 90.6001L331.728 133.22C336.222 137.735 339 143.957 339 150.83C339 164.63 327.802 175.808 314 175.808C300.198 175.808 289 164.63 289 150.83C289 143.957 291.778 137.735 296.271 133.22L289.806 90.6001C289.771 90.3673 289.752 90.1358 289.75 89.9068H267.902C267.788 89.9068 267.674 89.9048 267.561 89.901H248.994C246.236 89.901 244 87.665 244 84.9067C244 82.1484 246.236 79.9124 248.994 79.9124H257.595L240.705 12.428ZM299.816 89.9068L306.509 134.029C306.814 136.045 305.81 137.981 304.32 139.376C304.241 139.451 304.161 139.524 304.079 139.596C301.817 141.59 300.162 144.253 299.425 147.274C299.148 148.415 299 149.606 299 150.831C299 150.9 299.001 150.968 299.002 151.036C299.002 151.073 299.003 151.11 299.003 151.147C299.004 151.18 299.005 151.213 299.006 151.246L299.006 151.245C299.225 159.32 305.849 165.808 314 165.808C322.29 165.808 329 159.097 329 150.83C329 146.336 327.016 142.301 323.873 139.555C322.268 138.152 321.151 136.134 321.466 134.026L321.567 133.352C321.593 133.172 321.629 132.997 321.674 132.826L328.184 89.9068H299.816ZM250.405 10L267.902 79.9068L360.097 79.9068L377.594 10H250.405ZM67 273.687H0V263.687H44V56.934C44 36.5233 60.5655 19.9771 81 19.9771H242.545L245.07 29.9655H81C66.0883 29.9655 54 42.0397 54 56.934V263.687H67C72.5229 263.687 77 268.164 77 273.687V297.648H117.028C117.998 297.648 118.947 297.366 119.759 296.836L162.28 269.117C164.717 267.529 167.563 266.683 170.472 266.683H228.67C231.912 266.683 235.068 267.734 237.663 269.678L255.967 283.39L274.347 269.665C276.939 267.729 280.087 266.683 283.322 266.683H341.528C344.437 266.683 347.283 267.529 349.72 269.117L392.241 296.836C393.053 297.365 394.002 297.647 394.972 297.647H418V56.934C418 42.0397 405.912 29.9655 391 29.9655H382.93L385.455 19.9771H431C451.435 19.9771 468 36.5233 468 56.934V263.687H512V273.687H445V455.463H512V465.463H445C439.477 465.463 435 460.986 435 455.463L435 435.498H392.575L366.336 453.844C366.879 454.49 367.532 455.321 367.957 456.166C368.323 456.891 368.713 457.965 368.657 459.287C368.599 460.639 368.099 461.707 367.606 462.451C366.909 463.503 365.825 464.428 365.199 464.963L365.187 464.972C365.138 465.014 365.092 465.054 365.049 465.091L364.897 465.222L364.896 465.222L364.896 465.223L364.895 465.223C364.1 465.906 363.151 466.722 361.967 467.861L361.888 467.938L361.805 468.01C355.382 473.67 347.789 479.185 339.639 481.357C332.896 483.153 325.953 482.599 319.383 478.544L318.714 479.078C312.311 484.709 304.751 490.183 296.639 492.344C289.082 494.357 281.274 493.419 274.022 487.907C273.617 488.362 273.178 488.8 272.703 489.214C266.328 494.755 258.817 500.092 250.757 502.132C243.087 504.073 235.188 502.944 227.891 497.104L227.533 497.461L227.423 497.572L227.305 497.675C220.882 503.334 213.289 508.85 205.139 511.021C196.533 513.314 187.601 511.779 179.534 504.02C167.195 492.152 126.35 447.31 118.608 438.796C118.226 438.376 117.766 438.048 117.229 437.818C116.731 437.605 116.196 437.495 115.655 437.495H115H77V454.464C77 459.987 72.5229 464.464 67 464.464H0V454.464H67V273.687ZM458 263.687V56.934C458 44.0966 449.02 33.3542 436.992 30.6319C443.788 37.3328 448 46.6421 448 56.934V263.687H458ZM438 266.545V56.934C438 44.0966 429.02 33.3542 416.992 30.6319C423.788 37.3328 428 46.6421 428 56.934V297.647H435V273.687C435 270.889 436.149 268.36 438 266.545ZM435 307.647L435 425.498H391H389.426L388.135 426.4L359.796 446.215L272.015 347.46L285.872 334.806L285.869 334.803C286.871 333.89 287.5 332.575 287.5 331.114C287.5 328.355 285.258 326.119 282.5 326.119C281.203 326.119 280.02 326.614 279.131 327.425L279.128 327.422L261.628 343.403L261.555 343.47L261.488 343.536L261.487 343.537L261.487 343.538L261.484 343.54L261.473 343.55C261.458 343.565 261.432 343.59 261.395 343.626C261.321 343.698 261.203 343.81 261.042 343.961C260.721 344.261 260.231 344.71 259.585 345.277C258.293 346.411 256.383 348.008 253.961 349.817C249.098 353.45 242.269 357.86 234.307 361.11C226.342 364.362 217.433 366.376 208.305 365.467C199.359 364.576 189.891 360.853 180.587 352.164L280.33 277.677C281.194 277.032 282.244 276.683 283.322 276.683H341.528C342.498 276.683 343.447 276.965 344.259 277.494L386.78 305.213C389.217 306.801 392.063 307.647 394.972 307.647H435ZM77 427.495H115H115.655C117.549 427.495 119.423 427.88 121.164 428.625C123.003 429.412 124.649 430.575 126.006 432.068C133.909 440.759 174.439 485.244 186.466 496.812C191.899 502.038 197.186 502.791 202.564 501.358C208.361 499.814 214.477 495.635 220.578 490.274L220.673 490.179C216.394 485.808 210.826 479.941 204.853 473.572L204.878 473.548C204.203 472.697 203.8 471.621 203.8 470.451C203.8 467.693 206.042 465.457 208.8 465.457C210.084 465.457 211.255 465.941 212.141 466.737L212.147 466.731L212.222 466.811C212.378 466.957 212.525 467.114 212.661 467.279C221.108 476.281 228.49 483.999 232.466 487.824C237.826 492.979 243.031 493.771 248.304 492.437C254.022 490.99 260.075 486.94 266.142 481.667C266.314 481.517 266.485 481.343 266.652 481.142L266.722 481.058C261.489 475.764 253.827 467.791 247.353 460.886L247.355 460.884C246.515 459.99 246 458.788 246 457.466C246 454.708 248.242 452.472 251 452.472C252.436 452.472 253.732 453.078 254.645 454.048L254.647 454.046C263.285 463.258 273.9 474.224 277.966 478.135C283.4 483.361 288.686 484.114 294.064 482.681C299.719 481.174 305.677 477.161 311.629 471.989C306.498 466.865 297.668 457.7 290.353 449.899L290.355 449.897C289.515 449.003 289 447.801 289 446.479C289 443.721 291.242 441.485 294 441.485C295.436 441.485 296.732 442.091 297.645 443.061L297.647 443.059C306.285 452.271 316.9 463.237 320.966 467.148C326.4 472.374 331.686 473.127 337.064 471.694C342.873 470.147 349.001 465.953 355.114 460.578C355.92 459.805 356.638 459.156 357.253 458.614L352.206 452.732L352.208 452.73L264.588 354.158C263.317 355.223 261.758 356.475 259.945 357.829C254.643 361.789 247.07 366.701 238.087 370.368C229.107 374.034 218.526 376.534 207.314 375.418C196.01 374.292 184.389 369.519 173.433 359.164C168.842 354.825 169.786 347.75 174.43 344.281L247.614 289.628L231.668 277.681C230.802 277.033 229.751 276.683 228.67 276.683H170.472C169.502 276.683 168.553 276.965 167.741 277.494L125.22 305.213C122.783 306.802 119.937 307.648 117.028 307.648H77V427.495ZM37 423.506C37 420.748 39.2417 418.512 42 418.512C44.7583 418.512 47 420.748 47 423.506C47 426.264 44.7583 428.5 42 428.5C39.2417 428.5 37 426.264 37 423.506ZM465 423.506C465 420.748 467.242 418.512 470 418.512C472.758 418.512 475 420.748 475 423.506C475 426.264 472.758 428.5 470 428.5C467.242 428.5 465 426.264 465 423.506Z" fill="url(#paint0_linear)"/>
<defs>
<linearGradient id="paint0_linear" x1="513.208" y1="511.994" x2="106.669" y2="-56.3115" gradientUnits="userSpaceOnUse">
<stop stop-color="#390065"/>
<stop offset="1" stop-color="#54BBF6"/>
</linearGradient>
</defs>
</svg>
