<svg width="512" height="512" viewBox="0 0 512 512" fill="none" xmlns="http://www.w3.org/2000/svg">
<path fill-rule="evenodd" clip-rule="evenodd" d="M0 37C0 16.5655 16.5655 0 37 0H347C366.906 0 383.14 15.7195 383.967 35.4221C383.989 35.6117 384 35.8045 384 36C384 36.0901 383.998 36.1796 383.993 36.2685C383.998 36.5118 384 36.7556 384 37V186H475C495.435 186 512 202.565 512 223V412C512 432.435 495.435 449 475 449H345.553L351.372 482H385C393.284 482 400 488.716 400 497C400 505.284 393.284 512 385 512H255C246.716 512 240 505.284 240 497C240 488.716 246.716 482 255 482H288.159L293.977 449H165C144.565 449 128 432.435 128 412V251H37C16.5655 251 0 234.435 0 214V37ZM128 241V223C128 202.565 144.565 186 165 186H374V72H10V214C10 228.912 22.0883 241 37 241H128ZM347 10C359.85 10 370.603 18.9761 373.331 31H155C152.239 31 150 33.2386 150 36C150 38.7614 152.239 41 155 41H374V62H10V37C10 22.0883 22.0883 10 37 10H347ZM40 36C40 33.2386 42.2386 31 45 31C47.7614 31 50 33.2386 50 36C50 38.7614 47.7614 41 45 41C42.2386 41 40 38.7614 40 36ZM75 31C72.2386 31 70 33.2386 70 36C70 38.7614 72.2386 41 75 41C77.7614 41 80 38.7614 80 36C80 33.2386 77.7614 31 75 31ZM100 36C100 33.2386 102.239 31 105 31C107.761 31 110 33.2386 110 36C110 38.7614 107.761 41 105 41C102.239 41 100 38.7614 100 36ZM304.132 449H335.399L341.218 482H298.313L304.132 449ZM165 196C150.088 196 138 208.088 138 223V412C138 426.912 150.088 439 165 439H475C489.912 439 502 426.912 502 412V223C502 208.088 489.912 196 475 196H165ZM158 231C158 222.716 164.716 216 173 216H467C475.284 216 482 222.716 482 231V394C482 402.284 475.284 409 467 409H173C164.716 409 158 402.284 158 394V231ZM173 226C170.239 226 168 228.239 168 231V394C168 396.761 170.239 399 173 399H467C469.761 399 472 396.761 472 394V231C472 228.239 469.761 226 467 226H173ZM321 419C318.239 419 316 421.239 316 424C316 426.761 318.239 429 321 429C323.761 429 326 426.761 326 424C326 421.239 323.761 419 321 419ZM255 492C252.239 492 250 494.239 250 497C250 499.761 252.239 502 255 502H385C387.761 502 390 499.761 390 497C390 494.239 387.761 492 385 492H255Z" fill="url(#paint0_linear)"/>
<path fill-rule="evenodd" clip-rule="evenodd" d="M419 246.763C410.716 246.763 404 253.479 404 261.763V281.763C404 290.048 410.716 296.763 419 296.763H439C447.284 296.763 454 290.048 454 281.763V261.763C454 253.479 447.284 246.763 439 246.763H419ZM414 261.763C414 259.002 416.239 256.763 419 256.763H439C441.761 256.763 444 259.002 444 261.763V281.763C444 284.525 441.761 286.763 439 286.763H419C416.239 286.763 414 284.525 414 281.763V261.763ZM250 256.763C247.239 256.763 245 259.002 245 261.763C245 264.525 247.239 266.763 250 266.763H344C346.761 266.763 349 264.525 349 261.763C349 259.002 346.761 256.763 344 256.763H250ZM463.237 399.763L407.891 335.855C403.903 331.25 396.76 331.25 392.772 335.855L364.195 368.853L329.55 318.848C325.573 313.108 317.087 313.108 313.11 318.848L283.977 360.898L250.99 303.763C247.141 297.097 237.519 297.097 233.67 303.763L178.244 399.763H189.791L242.33 308.763L277.679 369.989L257.22 399.519L257.573 399.763H269.216L321.33 324.543L373.444 399.763H385.086L385.44 399.519L370.074 377.34L400.332 342.401L450.009 399.763H463.237ZM359 314.763C359 312.002 361.239 309.763 364 309.763C366.761 309.763 369 312.002 369 314.763C369 317.525 366.761 319.763 364 319.763C361.239 319.763 359 317.525 359 314.763ZM187 261.763C187 259.002 189.239 256.763 192 256.763H230C232.761 256.763 235 259.002 235 261.763C235 264.525 232.761 266.763 230 266.763H192C189.239 266.763 187 264.525 187 261.763Z" fill="black"/>
<path fill-rule="evenodd" clip-rule="evenodd" d="M45 96C36.7157 96 30 102.716 30 111V202C30 210.284 36.7157 217 45 217H128.617C129.27 213.465 130.425 210.106 132.006 207H45C42.2386 207 40 204.761 40 202V111C40 108.239 42.2386 106 45 106H218C220.761 106 223 108.239 223 111V186.763H233V111C233 102.716 226.284 96 218 96H45ZM152 121.671C149.609 120.29 146.551 121.109 145.17 123.501L110.17 184.123C108.789 186.514 109.609 189.572 112 190.953C114.392 192.333 117.45 191.514 118.83 189.123L153.83 128.501C155.211 126.109 154.392 123.051 152 121.671ZM206.113 151.983C208.384 153.294 209.238 156.119 208.134 158.449C207.736 159.476 206.999 160.379 205.971 160.973L171.33 180.973C168.939 182.354 165.881 181.534 164.5 179.143C163.119 176.751 163.939 173.693 166.33 172.313L193.828 156.437L166.472 140.643C164.08 139.262 163.261 136.204 164.642 133.813C166.022 131.421 169.08 130.602 171.472 131.983L206.113 151.983ZM55.4799 158.449C54.3759 156.119 55.229 153.294 57.5008 151.983L92.1418 131.983C94.5333 130.602 97.5913 131.421 98.972 133.813C100.353 136.204 99.5333 139.262 97.1418 140.643L69.7858 156.437L97.2834 172.313C99.6749 173.693 100.494 176.751 99.1136 179.143C97.7329 181.534 94.6749 182.354 92.2834 180.973L57.6424 160.973C56.6145 160.379 55.8771 159.476 55.4799 158.449ZM259 123C256.239 123 254 125.239 254 128C254 130.761 256.239 133 259 133H344C346.761 133 349 130.761 349 128C349 125.239 346.761 123 344 123H259ZM290 153C287.239 153 285 155.239 285 158C285 160.761 287.239 163 290 163H344C346.761 163 349 160.761 349 158C349 155.239 346.761 153 344 153H290Z" fill="black"/>
<defs>
<linearGradient id="paint0_linear" x1="512" y1="511.763" x2="-28.5643" y2="479.566" gradientUnits="userSpaceOnUse">
<stop stop-color="#390065"/>
<stop offset="1" stop-color="#54BBF6"/>
</linearGradient>
</defs>
</svg>
