<svg width="512" height="512" viewBox="0 0 512 512" fill="none" xmlns="http://www.w3.org/2000/svg">
<path fill-rule="evenodd" clip-rule="evenodd" d="M37 0C16.5655 0 0 16.5655 0 37V266.89V267V276.89H67V451.449H0V461.449H67C72.5229 461.449 77 456.971 77 451.449V437.506H115H115.656C116.197 437.506 116.732 437.616 117.23 437.828C117.768 438.058 118.229 438.386 118.611 438.806C126.355 447.312 167.198 492.096 179.536 503.949C187.603 511.699 196.534 513.231 205.137 510.942C213.287 508.774 220.88 503.265 227.303 497.613L227.421 497.509L227.531 497.399L227.891 497.04C235.189 502.874 243.087 504.001 250.756 502.063C258.814 500.026 266.325 494.696 272.7 489.161C273.176 488.748 273.616 488.31 274.021 487.854C281.275 493.36 289.082 494.297 296.637 492.287C304.748 490.129 312.308 484.662 318.712 479.037L319.383 478.502C325.953 482.554 332.896 483.107 339.637 481.313C347.787 479.145 355.38 473.636 361.803 467.984L361.886 467.911L361.965 467.835C363.15 466.696 364.098 465.881 364.894 465.198L365.047 465.068L365.101 465.021L365.175 464.958L365.195 464.941L365.196 464.94C365.822 464.406 366.907 463.481 367.604 462.43C368.097 461.686 368.599 460.618 368.657 459.265C368.713 457.942 368.322 456.867 367.956 456.142C367.532 455.301 366.883 454.474 366.34 453.83L392.573 435.511H435L435 452.446C435 457.969 439.477 462.446 445 462.446H512V452.446H445V276.89H512V267V266.89V37C512 16.5655 495.435 0 475 0H37ZM67 266.89H10V72H502V266.89H445C439.477 266.89 435 271.367 435 276.89V297.816H394.969C394 297.816 393.052 297.535 392.24 297.006L349.716 269.32C347.281 267.734 344.437 266.89 341.531 266.89H283.319C280.087 266.89 276.941 267.934 274.35 269.866L255.967 283.578L237.659 269.88C235.065 267.939 231.913 266.89 228.673 266.89H170.469C167.563 266.89 164.719 267.734 162.284 269.32L119.76 297.006C118.948 297.535 118 297.816 117.031 297.816H77V276.89C77 271.367 72.5229 266.89 67 266.89ZM502 62V37C502 22.0883 489.912 10 475 10H37C22.0883 10 10 22.0883 10 37V62H502ZM77 307.816V427.506H115H115.656C117.548 427.506 119.421 427.889 121.161 428.633C123.001 429.42 124.647 430.581 126.005 432.074C133.91 440.757 174.437 485.184 186.464 496.738C191.897 501.957 197.185 502.71 202.566 501.278C208.363 499.736 214.48 495.561 220.581 490.208L220.669 490.119C216.391 485.754 210.825 479.897 204.855 473.538L204.882 473.512C204.205 472.662 203.8 471.585 203.8 470.415C203.8 467.66 206.045 465.427 208.8 465.427C210.08 465.427 211.25 465.909 212.136 466.702L212.145 466.693L212.271 466.828C212.392 466.944 212.508 467.067 212.617 467.195C221.081 476.206 228.481 483.933 232.464 487.759C237.823 492.908 243.03 493.701 248.305 492.367C254.024 490.922 260.078 486.877 266.144 481.61C266.316 481.461 266.487 481.287 266.655 481.086L266.718 481.01C261.486 475.722 253.827 467.762 247.355 460.869L247.36 460.864C246.517 459.971 246 458.769 246 457.446C246 454.691 248.245 452.458 251 452.458C252.432 452.458 253.727 453.062 254.64 454.029L254.645 454.024C263.283 463.224 273.898 474.176 277.964 478.082C283.397 483.302 288.685 484.055 294.066 482.623C299.719 481.119 305.675 477.112 311.624 471.95C306.493 466.832 297.666 457.682 290.355 449.895L290.539 449.722C290.194 449.046 290 448.28 290 447.47C290 444.715 292.245 442.482 295 442.482C295.919 442.482 296.782 442.731 297.523 443.165L297.645 443.05L297.97 443.396L298.195 443.636C298.512 443.898 298.795 444.199 299.039 444.531C307.393 453.395 317.114 463.41 320.964 467.109C326.397 472.328 331.685 473.081 337.066 471.649C342.875 470.104 349.004 465.916 355.117 460.547C355.92 459.778 356.635 459.131 357.249 458.591L352.208 452.724L352.21 452.722L264.589 354.269C263.317 355.333 261.758 356.583 259.944 357.937C254.642 361.892 247.07 366.797 238.088 370.46C229.11 374.121 218.53 376.618 207.32 375.504C196.019 374.382 184.399 369.618 173.443 359.278C168.844 354.937 169.79 347.856 174.44 344.388L247.608 289.813L231.668 277.887C230.804 277.24 229.753 276.89 228.673 276.89H170.469C169.5 276.89 168.552 277.171 167.74 277.7L125.216 305.387C122.781 306.972 119.937 307.816 117.031 307.816H77ZM435 307.816L435 425.511H391H389.427L388.137 426.411L359.795 446.203L272.019 347.575L285.869 334.942L285.864 334.936C286.868 334.024 287.5 332.709 287.5 331.248C287.5 328.493 285.255 326.26 282.5 326.26C281.206 326.26 280.025 326.752 279.136 327.56L279.131 327.554L261.631 343.516L261.557 343.583L261.49 343.649L261.489 343.65L261.489 343.65L261.486 343.653L261.476 343.663C261.461 343.678 261.435 343.703 261.397 343.739C261.355 343.78 261.297 343.835 261.225 343.903C261.172 343.953 261.112 344.009 261.045 344.073C260.723 344.372 260.233 344.821 259.588 345.387C258.295 346.519 256.386 348.115 253.964 349.921C249.101 353.549 242.274 357.953 234.312 361.2C226.347 364.448 217.438 366.46 208.309 365.553C199.363 364.665 189.895 360.948 180.592 352.274L280.329 277.882C281.193 277.238 282.241 276.89 283.319 276.89H341.531C342.5 276.89 343.448 277.171 344.26 277.7L386.784 305.387C389.219 306.972 392.063 307.816 394.969 307.816H435ZM37 419.537C37 416.782 39.2452 414.549 42 414.549C44.7548 414.549 47 416.782 47 419.537C47 422.292 44.7548 424.525 42 424.525C39.2452 424.525 37 422.292 37 419.537ZM470 414.549C467.245 414.549 465 416.782 465 419.537C465 422.292 467.245 424.525 470 424.525C472.755 424.525 475 422.292 475 419.537C475 416.782 472.755 414.549 470 414.549ZM40 36C40 33.2386 42.2386 31 45 31C47.7614 31 50 33.2386 50 36C50 38.7614 47.7614 41 45 41C42.2386 41 40 38.7614 40 36ZM150 36C150 33.2386 152.239 31 155 31H467C469.761 31 472 33.2386 472 36C472 38.7614 469.761 41 467 41H155C152.239 41 150 38.7614 150 36ZM75 31C72.2386 31 70 33.2386 70 36C70 38.7614 72.2386 41 75 41C77.7614 41 80 38.7614 80 36C80 33.2386 77.7614 31 75 31ZM100 36C100 33.2386 102.239 31 105 31C107.761 31 110 33.2386 110 36C110 38.7614 107.761 41 105 41C102.239 41 100 38.7614 100 36Z" fill="url(#paint0_linear)"/>
<path fill-rule="evenodd" clip-rule="evenodd" d="M36 107C36 98.7157 42.7157 92 51 92H461C469.284 92 476 98.7157 476 107V231C476 239.284 469.284 246 461 246H51C42.7157 246 36 239.284 36 231V107ZM51 102C48.2386 102 46 104.239 46 107V231C46 233.761 48.2386 236 51 236H114.399L168.67 142C172.519 135.333 182.141 135.333 185.99 142L218.977 199.135L248.11 157.085C252.087 151.345 260.573 151.345 264.55 157.085L299.195 207.09L327.772 174.091C331.76 169.487 338.903 169.487 342.891 174.091L396.506 236H461C463.761 236 466 233.761 466 231V107C466 104.239 463.761 102 461 102H51ZM383.277 236L335.332 180.638L305.074 215.576L319.224 236H383.277ZM307.058 236L256.33 162.78L205.602 236H307.058ZM193.436 236L212.679 208.226L177.33 147L125.946 236H193.436ZM294 153C294 150.239 296.239 148 299 148C301.761 148 304 150.239 304 153C304 155.761 301.761 158 299 158C296.239 158 294 155.761 294 153Z" fill="black"/>
<defs>
<linearGradient id="paint0_linear" x1="512" y1="509.433" x2="-87.2362" y2="366.991" gradientUnits="userSpaceOnUse">
<stop stop-color="#390065"/>
<stop offset="1" stop-color="#54BBF6"/>
</linearGradient>
</defs>
</svg>
