<svg width="512" height="512" viewBox="0 0 512 512" fill="none" xmlns="http://www.w3.org/2000/svg">
<path fill-rule="evenodd" clip-rule="evenodd" d="M85 125C82.2386 125 80 127.239 80 130C80 132.761 82.2386 135 85 135H201C203.761 135 206 132.761 206 130C206 127.239 203.761 125 201 125H85ZM85 151C82.2386 151 80 153.239 80 156C80 158.761 82.2386 161 85 161H237C239.761 161 242 158.761 242 156C242 153.239 239.761 151 237 151H85ZM85 209C82.2386 209 80 211.239 80 214C80 216.761 82.2386 219 85 219H155C157.761 219 160 216.761 160 214C160 211.239 157.761 209 155 209H85ZM352 376C352 373.239 354.239 371 357 371H387C389.761 371 392 373.239 392 376C392 378.761 389.761 381 387 381H357C354.239 381 352 378.761 352 376ZM180 209C177.239 209 175 211.239 175 214C175 216.761 177.239 219 180 219H275C277.761 219 280 216.761 280 214C280 211.239 277.761 209 275 209H180ZM296 214C296 211.239 298.239 209 301 209H387C389.761 209 392 211.239 392 214C392 216.761 389.761 219 387 219H301C298.239 219 296 216.761 296 214ZM301 319C298.239 319 296 321.239 296 324C296 326.761 298.239 329 301 329H387C389.761 329 392 326.761 392 324C392 321.239 389.761 319 387 319H301ZM80 240C80 237.239 82.2386 235 85 235H241C243.761 235 246 237.239 246 240C246 242.761 243.761 245 241 245H85C82.2386 245 80 242.761 80 240ZM269 397C266.239 397 264 399.239 264 402C264 404.761 266.239 407 269 407H387C389.761 407 392 404.761 392 402C392 399.239 389.761 397 387 397H269ZM264 240C264 237.239 266.239 235 269 235H387C389.761 235 392 237.239 392 240C392 242.761 389.761 245 387 245H269C266.239 245 264 242.761 264 240ZM139 397C136.239 397 134 399.239 134 402C134 404.761 136.239 407 139 407H243C245.761 407 248 404.761 248 402C248 399.239 245.761 397 243 397H139ZM152 266C152 263.239 154.239 261 157 261H387C389.761 261 392 263.239 392 266C392 268.761 389.761 271 387 271H157C154.239 271 152 268.761 152 266ZM85 261C82.2386 261 80 263.239 80 266C80 268.761 82.2386 271 85 271H129C131.761 271 134 268.761 134 266C134 263.239 131.761 261 129 261H85ZM80 350C80 347.239 82.2386 345 85 345H129C131.761 345 134 347.239 134 350C134 352.761 131.761 355 129 355H85C82.2386 355 80 352.761 80 350ZM85 319C82.2386 319 80 321.239 80 324C80 326.761 82.2386 329 85 329H275C277.761 329 280 326.761 280 324C280 321.239 277.761 319 275 319H85ZM150 350C150 347.239 152.239 345 155 345H387C389.761 345 392 347.239 392 350C392 352.761 389.761 355 387 355H155C152.239 355 150 352.761 150 350ZM85 371C82.2386 371 80 373.239 80 376C80 378.761 82.2386 381 85 381H331C333.761 381 336 378.761 336 376C336 373.239 333.761 371 331 371H85ZM80 402C80 399.239 82.2386 397 85 397H113C115.761 397 118 399.239 118 402C118 404.761 115.761 407 113 407H85C82.2386 407 80 404.761 80 402ZM85 455C82.2386 455 80 457.239 80 460C80 462.761 82.2386 465 85 465H221C223.761 465 226 462.761 226 460C226 457.239 223.761 455 221 455H85ZM328 460C328 457.239 330.239 455 333 455H387C389.761 455 392 457.239 392 460C392 462.761 389.761 465 387 465H333C330.239 465 328 462.761 328 460Z" fill="black"/>
<path fill-rule="evenodd" clip-rule="evenodd" d="M250.404 0C243.899 0 239.125 6.11389 240.703 12.4254L257.597 80H249C246.239 80 244 82.2386 244 85C244 87.7614 246.239 90 249 90H267.904H289.749C289.752 90.2287 289.77 90.46 289.805 90.6926L296.272 133.373C291.777 137.893 289 144.122 289 151C289 164.807 300.193 176 314 176C327.807 176 339 164.807 339 151C339 144.122 336.222 137.893 331.728 133.372L338.194 90.6926C338.23 90.46 338.248 90.2287 338.251 90H360.097H379C381.762 90 384 87.7614 384 85C384 82.2386 381.762 80 379 80H370.404L387.298 12.4254C388.876 6.11388 384.102 0 377.597 0H250.404ZM306.509 134.185L299.815 90H328.185L321.674 132.975C321.629 133.146 321.593 133.322 321.566 133.502L321.465 134.179C321.153 136.274 322.254 138.28 323.844 139.681L323.887 139.719C327.021 142.469 329 146.503 329 151C329 151.138 328.998 151.276 328.994 151.414L328.994 151.413C328.96 152.68 328.769 153.907 328.439 155.077L328.439 155.076C328.36 155.358 328.273 155.636 328.178 155.91L328.177 155.913C326.142 161.784 320.563 166 314 166C305.716 166 299 159.284 299 151C299 147.627 300.113 144.515 301.992 142.009C302.61 141.185 303.311 140.426 304.083 139.746L304.113 139.719C305.716 138.313 306.829 136.293 306.509 134.185ZM360.097 80L377.597 10H250.404L267.904 80H360.097ZM81 20H242.545L245.07 30H81C66.0883 30 54 42.0883 54 57V475C54 489.912 66.0883 502 81 502H391C405.912 502 418 489.912 418 475V57C418 42.0883 405.912 30 391 30H382.93L385.455 20H391H411H431C451.435 20 468 36.5655 468 57V475C468 495.435 451.435 512 431 512H411H391H81C60.5655 512 44 495.435 44 475V57C44 36.5655 60.5655 20 81 20ZM436.992 501.333C449.02 498.607 458 487.852 458 475V57C458 44.1476 449.02 33.3927 436.992 30.6672C443.788 37.3759 448 46.6961 448 57V475C448 485.304 443.788 494.624 436.992 501.333ZM428 475C428 485.304 423.788 494.624 416.992 501.333C429.02 498.607 438 487.852 438 475V57C438 44.1476 429.02 33.3927 416.992 30.6672C423.788 37.3759 428 46.6961 428 57V475Z" fill="url(#paint0_linear)"/>
<defs>
<linearGradient id="paint0_linear" x1="469" y1="512" x2="44" y2="20" gradientUnits="userSpaceOnUse">
<stop stop-color="#390065"/>
<stop offset="1" stop-color="#54BBF6"/>
</linearGradient>
</defs>
</svg>
