<svg width="512" height="512" viewBox="0 0 512 512" fill="none" xmlns="http://www.w3.org/2000/svg">
<path fill-rule="evenodd" clip-rule="evenodd" d="M57 0C42.6406 0 31 11.6406 31 26C31 40.3594 42.6406 52 57 52H69V274.213C63.867 283.438 60.9421 294.047 60.9421 305.324V325.054C57.4664 328.982 55.5763 333.818 55.5763 338.945C55.5763 345.375 58.3726 351.46 63.2499 355.643C66.9809 358.843 71.5501 360.676 76.476 361.023C78.21 374.229 85.2619 386.014 95.9858 393.782V407.567L33.8342 431.597C33.8016 431.609 33.769 431.622 33.7364 431.635L33.7215 431.642C32.3546 432.202 0 445.457 0 476.021V512H10.4096V476.022C10.4096 452.836 36.0443 441.939 37.6308 441.265L37.6637 441.251L75.0181 426.809L91.4298 459.611C93.0001 462.748 96.1884 464.642 99.5871 464.642C102.572 464.642 104.301 463.393 106.32 461.935C106.555 461.766 106.793 461.594 107.038 461.42L111.23 467.713L103.714 512H114.267L121.099 471.742H130.863L137.695 512H148.255L140.738 467.713L144.93 461.42C145.178 461.595 145.419 461.77 145.657 461.942C147.647 463.381 149.39 464.642 152.381 464.642C155.787 464.642 158.971 462.741 160.538 459.612L176.948 426.81L214.331 441.249C215.684 441.827 241.592 453.775 241.592 477.065V512H252V477.065C252 446.378 219.385 432.097 218.264 431.637L218.244 431.629L218.23 431.623C218.208 431.614 218.186 431.606 218.164 431.597L155.945 407.567V393.014C156.784 392.363 157.601 391.686 158.395 390.984C158.165 391.326 157.93 391.664 157.691 392H274V422.854C268.174 424.913 264 430.469 264 437C264 445.284 270.716 452 279 452C287.284 452 294 445.284 294 437C294 430.469 289.826 424.913 284 422.854V392H485C499.359 392 511 380.359 511 366C511 351.641 499.359 340 485 340H473V52H485C499.359 52 511 40.3594 511 26C511 11.6406 499.359 0 485 0H57ZM166.336 382H485C493.837 382 501 374.837 501 366C501 357.163 493.837 350 485 350H192.331C191.106 352.107 189.526 354.018 187.633 355.641C183.899 358.843 179.327 360.678 174.4 361.024C173.378 368.728 170.543 375.867 166.336 382ZM184.85 340H183.425C183.804 340.709 184.143 341.439 184.439 342.186C183.817 344.337 182.581 346.283 180.846 347.771C179.144 349.231 177.088 350.165 174.836 350.53V327.364C180.818 328.333 184.898 333.281 184.898 338.946C184.898 339.3 184.882 339.651 184.85 340ZM195.281 340H463V52H79V260.73C90.7404 248.574 107.22 241 125.44 241C161.004 241 189.937 269.856 189.938 305.324V324.55C193.377 328.519 195.307 333.612 195.307 338.946C195.307 339.298 195.298 339.65 195.281 340ZM501 26C501 34.8366 493.837 42 485 42H57C48.1634 42 41 34.8366 41 26C41 17.1634 48.1634 10 57 10H485C493.837 10 501 17.1634 501 26ZM274 437C274 434.239 276.239 432 279 432C281.761 432 284 434.239 284 437C284 439.761 281.761 442 279 442C276.239 442 274 439.761 274 437ZM151.9 453.625L167.2 423.046L152.398 417.329L147.273 423.638L135.636 437.963L133.501 440.592C141.376 446.169 148.112 450.942 150.739 452.803L151.9 453.625ZM132.471 461.363L136.438 455.407L125.982 448L115.526 455.407L119.493 461.363H132.471ZM106.393 399.528V409.241L125.982 433.355L145.537 409.284V399.203C139.586 401.798 132.895 403.249 126.072 403.249C119.473 403.249 112.716 402.07 106.393 399.528ZM65.9845 338.945C65.9845 344.563 69.9965 349.551 76.0458 350.53V327.625C70.5967 328.881 65.9845 333.397 65.9845 338.945ZM71.3517 318.166C72.7679 317.686 74.6677 317.238 76.3254 317.049C77.4224 312.703 81.4997 309.763 85.9759 310.097C106.383 311.558 128.5 305.624 146.632 293.813C150.435 291.335 155.432 292.013 158.453 295.25C161.002 297.983 163.154 300.268 164.971 302.198C172.36 310.044 174.215 312.014 174.681 314.27C174.837 315.026 174.837 315.814 174.837 316.866V316.906C176.448 317.048 178.016 317.351 179.529 317.81V305.324C179.529 275.58 155.265 251.381 125.44 251.381C95.6153 251.381 71.3517 275.58 71.3517 305.324V318.166ZM86.4547 354.616C86.4547 374.512 102.346 392.868 126.073 392.867C147.202 392.867 164.428 375.685 164.428 354.616V316.943C163.558 315.878 161.477 313.665 157.985 309.951L157.983 309.95L157.981 309.947L157.969 309.934L157.966 309.931C156.185 308.037 154.038 305.753 151.498 303.034C132.471 315.187 108.919 321.842 86.4547 320.53V354.616ZM84.7658 423.046L100.065 453.625L100.445 453.357C102.313 452.033 109.66 446.827 118.443 440.607L99.5406 417.339L84.7658 423.046ZM51.6678 512V484.803C51.6678 481.937 49.3377 479.613 46.4637 479.613C43.5896 479.613 41.2595 481.937 41.2595 484.803V512H51.6678ZM210.745 484.803V512H200.336V484.803C200.336 481.937 202.666 479.613 205.541 479.613C208.415 479.613 210.745 481.937 210.745 484.803Z" fill="url(#paint0_linear)"/>
<path fill-rule="evenodd" clip-rule="evenodd" d="M394.5 103H360.5V113H382.904L327.028 172.187L301.279 144.486C297.357 140.267 290.69 140.226 286.716 144.395L233.017 200.736L206.27 172.416C202.324 168.237 195.676 168.237 191.73 172.416L161.365 204.567L168.635 211.433L199 179.282L225.747 207.602C229.681 211.767 236.303 211.782 240.256 207.635L293.955 151.295L319.704 178.995C323.639 183.228 330.333 183.254 334.3 179.051L389.5 120.58V144H399.5V108V103H394.5ZM402 228C393.716 228 387 234.716 387 243V340H397V243C397 240.239 399.239 238 402 238H424C426.762 238 429 240.239 429 243V340H439V243C439 234.716 432.285 228 424 228H402ZM312 248C303.716 248 297 254.716 297 263V340H307V263C307 260.239 309.239 258 312 258H334C336.762 258 339 260.239 339 263V340H349V263C349 254.716 342.285 248 334 248H312ZM222 268C213.716 268 207 274.716 207 283V340H217V283C217 280.239 219.239 278 222 278H244C246.762 278 249 280.239 249 283V340H259V283C259 274.716 252.285 268 244 268H222Z" fill="black"/>
<defs>
<linearGradient id="paint0_linear" x1="0" y1="0" x2="511" y2="512" gradientUnits="userSpaceOnUse">
<stop stop-color="#54BBF6"/>
<stop offset="1" stop-color="#390065"/>
</linearGradient>
</defs>
</svg>
