<svg width="512" height="512" viewBox="0 0 512 512" fill="none" xmlns="http://www.w3.org/2000/svg">
<path fill-rule="evenodd" clip-rule="evenodd" d="M286.185 37.8282C274.535 15.3554 251.061 0 224 0C185.34 0 154 31.3401 154 70C154 73.4141 154.244 76.7711 154.717 80.0545C129.82 81.2454 110 101.808 110 127C110 152.957 131.043 174 157 174H193V190H187C181.477 190 177 194.477 177 200V222C177 227.523 181.477 232 187 232H209C214.523 232 219 227.523 219 222V200C219 194.477 214.523 190 209 190H203V174H293V207H287C281.477 207 277 211.477 277 217V239C277 244.523 281.477 249 287 249H293V285H154C151.239 285 149 287.239 149 290C149 292.761 151.239 295 154 295H443V375H69V295H134C136.761 295 139 292.761 139 290C139 287.239 136.761 285 134 285H69C63.4771 285 59 289.477 59 295V375C59 380.523 63.4771 385 69 385H139V412H69C63.4771 412 59 416.477 59 422V502C59 507.523 63.4771 512 69 512H443C448.523 512 453 507.523 453 502V422C453 416.477 448.523 412 443 412H373V385H443C448.523 385 453 380.523 453 375V295C453 289.477 448.523 285 443 285H303V249H309C314.523 249 319 244.523 319 239V217C319 211.477 314.523 207 309 207H303V174H353C378.957 174 400 152.957 400 127C400 102.932 381.909 83.0895 358.584 80.3283C355.303 54.2066 333.011 34 306 34C298.995 34 292.307 35.3592 286.185 37.8282ZM164 70C164 36.8629 190.863 10 224 10C247.198 10 267.321 23.1653 277.306 42.4319C279.155 46 282.633 50 290.14 47.0192C295.048 45.0709 300.399 44 306 44C327.44 44 344.484 59.8202 348.468 80.2157C349.554 85.7778 350.5 89.1245 358.888 90.466C376.524 93.2864 390 108.569 390 127C390 147.435 373.435 164 353 164H303V138H309C314.523 138 319 133.523 319 128V106C319 100.477 314.523 96 309 96H287C281.477 96 277 100.477 277 106V128C277 133.523 281.477 138 287 138H293V164H157C136.565 164 120 147.435 120 127C120 106.599 136.511 90.0547 156.899 90.0001C164 90 166.5 85 164.946 80.6688C164.324 77.2065 164 73.6411 164 70ZM363 385H149V412H363V385ZM69 502V422H443V502H69ZM287 106H309V128H287V106ZM287 217H309V239H287V217ZM209 200H187V222H209V200Z" fill="url(#paint0_linear)"/>
<path fill-rule="evenodd" clip-rule="evenodd" d="M245 315C239.477 315 235 319.477 235 325V345C235 350.523 239.477 355 245 355H403.133C408.656 355 413.133 350.523 413.133 345V325C413.133 319.477 408.656 315 403.133 315H245ZM245 325H403.133V345H245V325ZM244.867 442C239.344 442 234.867 446.477 234.867 452V472C234.867 477.523 239.344 482 244.867 482H403C408.523 482 413 477.523 413 472V452C413 446.477 408.523 442 403 442H244.867ZM244.867 452H403V472H244.867V452ZM104 467C106.761 467 109 464.761 109 462C109 459.239 106.761 457 104 457C101.239 457 99 459.239 99 462C99 464.761 101.239 467 104 467ZM139 462C139 464.761 136.761 467 134 467C131.239 467 129 464.761 129 462C129 459.239 131.239 457 134 457C136.761 457 139 459.239 139 462ZM164 467C166.761 467 169 464.761 169 462C169 459.239 166.761 457 164 457C161.239 457 159 459.239 159 462C159 464.761 161.239 467 164 467ZM194 467C196.761 467 199 464.761 199 462C199 459.239 196.761 457 194 457C191.239 457 189 459.239 189 462C189 464.761 191.239 467 194 467ZM109 335C109 337.761 106.761 340 104 340C101.239 340 99 337.761 99 335C99 332.239 101.239 330 104 330C106.761 330 109 332.239 109 335ZM134 340C136.761 340 139 337.761 139 335C139 332.239 136.761 330 134 330C131.239 330 129 332.239 129 335C129 337.761 131.239 340 134 340ZM169 335C169 337.761 166.761 340 164 340C161.239 340 159 337.761 159 335C159 332.239 161.239 330 164 330C166.761 330 169 332.239 169 335ZM199 335C199 337.761 196.761 340 194 340C191.239 340 189 337.761 189 335C189 332.239 191.239 330 194 330C196.761 330 199 332.239 199 335Z" fill="black"/>
<defs>
<linearGradient id="paint0_linear" x1="-1.89233e-06" y1="1.89233e-06" x2="512" y2="512" gradientUnits="userSpaceOnUse">
<stop stop-color="#54BBF6"/>
<stop offset="1" stop-color="#390065"/>
</linearGradient>
</defs>
</svg>
